<?xml version="1.0" encoding="utf-8"?>
<!-- Generator: Adobe Illustrator 16.0.2, SVG Export Plug-In . SVG Version: 6.00 Build 0)  -->
<!DOCTYPE svg PUBLIC "-//W3C//DTD SVG 1.1//EN" "http://www.w3.org/Graphics/SVG/1.1/DTD/svg11.dtd">
<svg version="1.1" xmlns="http://www.w3.org/2000/svg" xmlns:xlink="http://www.w3.org/1999/xlink" x="0px" y="0px" width="592px"
	 height="304px" viewBox="0 0 592 304" enable-background="new 0 0 592 304" xml:space="preserve">
<g id="fragments" display="none">
	<rect id="_x3C_Фрагмент_x3E_" x="16" y="16" display="inline" fill="none" width="128" height="128"/>
	<rect id="_x3C_Фрагмент_x3E__1_" x="16" y="160" display="inline" fill="none" width="128" height="128"/>
	<rect id="_x3C_Фрагмент_x3E__2_" x="160" y="16" display="inline" fill="none" width="64" height="64"/>
	<rect id="_x3C_Фрагмент_x3E__3_" x="160" y="96" display="inline" fill="none" width="64" height="64"/>
	<rect id="_x3C_Фрагмент_x3E__4_" x="240" y="16" display="inline" fill="none" width="64" height="64"/>
	<rect id="_x3C_Фрагмент_x3E__5_" x="240" y="96" display="inline" fill="none" width="64" height="64"/>
	<rect id="_x3C_Фрагмент_x3E__6_" x="320" y="16" display="inline" fill="none" width="64" height="64"/>
	<rect id="_x3C_Фрагмент_x3E__7_" x="320" y="96" display="inline" fill="none" width="64" height="64"/>
	<rect id="_x3C_Фрагмент_x3E__8_" x="400" y="16" display="inline" fill="none" width="64" height="64"/>
	<rect id="_x3C_Фрагмент_x3E__9_" x="400" y="96" display="inline" fill="none" width="64" height="64"/>
	<rect id="_x3C_Фрагмент_x3E__10_" x="480" y="16" display="inline" fill="none" width="64" height="64"/>
	<rect id="_x3C_Фрагмент_x3E__11_" x="480" y="96" display="inline" fill="none" width="64" height="64"/>
	<rect id="_x3C_Фрагмент_x3E__12_" x="560" y="16" display="inline" fill="none" width="16" height="16"/>
	<rect id="_x3C_Фрагмент_x3E__13_" x="560" y="48" display="inline" fill="none" width="16" height="16"/>
	<rect id="_x3C_Фрагмент_x3E__14_" x="560" y="80" display="inline" fill="none" width="16" height="16"/>
	<rect id="_x3C_Фрагмент_x3E__15_" x="560" y="112" display="inline" fill="none" width="16" height="16"/>
	<rect id="_x3C_Фрагмент_x3E__16_" x="560" y="144" display="inline" fill="none" width="16" height="16"/>
	<rect id="_x3C_Фрагмент_x3E__17_" x="560" y="176" display="inline" fill="none" width="16" height="16"/>
	<rect id="_x3C_Фрагмент_x3E__18_" x="160" y="176" display="inline" fill="none" width="48" height="48"/>
	<rect id="_x3C_Фрагмент_x3E__19_" x="160" y="240" display="inline" fill="none" width="48" height="48"/>
	<rect id="_x3C_Фрагмент_x3E__20_" x="224" y="176" display="inline" fill="none" width="24" height="24"/>
	<rect id="_x3C_Фрагмент_x3E__21_" x="224" y="216" display="inline" fill="none" width="24" height="24"/>
	<rect id="_x3C_Фрагмент_x3E__22_" x="264" y="176" display="inline" fill="none" width="24" height="24"/>
	<rect id="_x3C_Фрагмент_x3E__23_" x="264" y="216" display="inline" fill="none" width="24" height="24"/>
	<rect id="_x3C_Фрагмент_x3E__24_" x="304" y="176" display="inline" fill="none" width="24" height="24"/>
	<rect id="_x3C_Фрагмент_x3E__25_" x="304" y="216" display="inline" fill="none" width="24" height="24"/>
	<rect id="_x3C_Фрагмент_x3E__26_" x="344" y="176" display="inline" fill="none" width="24" height="24"/>
	<rect id="_x3C_Фрагмент_x3E__27_" x="344" y="216" display="inline" fill="none" width="24" height="24"/>
	<rect id="_x3C_Фрагмент_x3E__28_" x="384" y="176" display="inline" fill="none" width="24" height="24"/>
	<rect id="_x3C_Фрагмент_x3E__29_" x="384" y="216" display="inline" fill="none" width="24" height="24"/>
	<rect id="_x3C_Фрагмент_x3E__30_" x="424" y="176" display="inline" fill="none" width="24" height="24"/>
	<rect id="_x3C_Фрагмент_x3E__31_" x="424" y="216" display="inline" fill="none" width="24" height="24"/>
	<rect id="_x3C_Фрагмент_x3E__32_" x="464" y="176" display="inline" fill="none" width="24" height="24"/>
	<rect id="_x3C_Фрагмент_x3E__33_" x="464" y="216" display="inline" fill="none" width="24" height="24"/>
	<rect id="_x3C_Фрагмент_x3E__34_" x="504" y="176" display="inline" fill="none" width="24" height="24"/>
	<rect id="_x3C_Фрагмент_x3E__35_" x="504" y="216" display="inline" fill="none" width="24" height="24"/>
	<rect id="_x3C_Фрагмент_x3E__36_" x="544" y="216" display="inline" fill="none" width="24" height="24"/>
	<rect id="_x3C_Фрагмент_x3E__37_" x="224" y="256" display="inline" fill="none" width="32" height="32"/>
	<rect id="_x3C_Фрагмент_x3E__38_" x="272" y="256" display="inline" fill="none" width="32" height="32"/>
	<rect id="_x3C_Фрагмент_x3E__39_" x="320" y="256" display="inline" fill="none" width="32" height="32"/>
	<rect id="_x3C_Фрагмент_x3E__40_" x="368" y="256" display="inline" fill="none" width="32" height="32"/>
	<rect id="_x3C_Фрагмент_x3E__41_" x="424" y="256" display="inline" fill="none" width="24" height="24"/>
	<rect id="_x3C_Фрагмент_x3E__42_" x="464" y="256" display="inline" fill="none" width="24" height="24"/>
	<rect id="_x3C_Фрагмент_x3E__43_" x="504" y="256" display="inline" fill="none" width="24" height="24"/>
	<rect id="_x3C_Фрагмент_x3E__44_" x="570" y="274" display="inline" fill="none" width="6" height="6"/>
</g>
<g id="logo_x5F_big">
	<g display="none">
		<path display="inline" fill="#674C3D" d="M80,13c-36.992,0-67,30.008-67,67c0,37.007,30.008,67,67,67c37.007,0,67-29.993,67-67
			C147,43.008,117.007,13,80,13z M80,143.859c-35.26,0-63.859-28.59-63.859-63.859c0-35.26,28.599-63.859,63.859-63.859
			c35.27,0,63.859,28.599,63.859,63.859C143.859,115.27,115.27,143.859,80,143.859z"/>
		<path display="inline" fill="#674C3D" d="M80,16.141C44.74,16.141,16.141,44.74,16.141,80c0,35.27,28.599,63.859,63.859,63.859
			c35.27,0,63.859-28.59,63.859-63.859C143.859,44.74,115.27,16.141,80,16.141z M80,140.719c-33.526,0-60.719-27.184-60.719-60.719
			c0-33.526,27.193-60.719,60.719-60.719c33.535,0,60.719,27.193,60.719,60.719C140.719,113.535,113.535,140.719,80,140.719z"/>
		<path fill="#674C3D" d="M80,19.281c-33.526,0-60.719,27.193-60.719,60.719c0,33.535,27.193,60.719,60.719,60.719
			c33.535,0,60.719-27.184,60.719-60.719C140.719,46.474,113.535,19.281,80,19.281z M80,137.578
			c-31.794,0-57.578-25.78-57.578-57.578c0-31.794,25.784-57.578,57.578-57.578c31.798,0,57.578,25.784,57.578,57.578
			C137.578,111.798,111.798,137.578,80,137.578z"/>
	</g>
	<path display="none" fill="#F7DA7E" d="M80,16c-35.34,0-64,28.66-64,64c0,35.344,28.66,64,64,64c35.344,0,64-28.656,64-64
		C144,44.66,115.344,16,80,16z"/>
	<path fill="#674C3D" d="M101.039,93.3l-0.991,2.946c-0.867,2.428-3.186,4.168-5.915,4.168h-6.281c-1.736,0-3.141-1.408-3.141-3.141
		v-8.902c-1.994,0.871-4.097,1.549-6.281,1.99v6.912c0,1.732-1.404,3.141-3.141,3.141v3.141h25.125l3.141-9.422l-0.017-0.017
		L101.039,93.3z"/>
	<path fill="#674C3D" d="M78.43,72.148h-3.141v3.141c1.736,0,3.141,1.404,3.141,3.141v0.01v2.576v0.012
		c0,0.014-0.003,0.027-0.003,0.042c-0.011,0.799-0.316,1.521-0.811,2.065c-0.008,0.006-0.013,0.01-0.018,0.016
		c-0.093,0.104-0.196,0.2-0.302,0.292c-0.036,0.027-0.074,0.049-0.111,0.078c-0.081,0.063-0.164,0.126-0.251,0.181
		c-0.127,0.078-0.26,0.147-0.398,0.207c-0.031,0.012-0.064,0.022-0.096,0.034c-1.342,0.489-2.783,0.769-4.292,0.769
		c-2.567,0-4.863-1.16-6.401-2.98c-0.577-0.822-1.073-1.703-1.497-2.626c-0.971-2.119-1.524-4.47-1.524-6.956
		s0.554-4.836,1.524-6.956c0.424-0.923,0.92-1.804,1.497-2.626c1.538-1.821,3.833-2.981,6.401-2.981
		c4.647,0,8.695,2.531,10.867,6.281h1.695v-6.454c-3.785-1.89-8.042-2.968-12.561-2.968h-0.001c-8.675,0-15.704,7.029-15.704,15.703
		c0,8.675,7.029,15.704,15.704,15.704h0.001c4.518,0,8.775-1.078,12.561-2.968V78.43c0-1.736,1.404-3.141,3.141-3.141v-3.141h-3.141
		H78.43z"/>
	<circle fill="#674C3D" cx="126.063" cy="80" r="3.141"/>
	<circle fill="#674C3D" cx="33.938" cy="80" r="3.141"/>
	<g>
		<path fill="#674C3D" d="M52.544,122.302l-1.612-1.235l0.173-5.251l-2.6,3.392l-1.419-1.087l5.128-6.693l1.42,1.088l-2.484,3.241
			l4.882-1.403l1.51,1.156l-4.901,1.345L52.544,122.302z"/>
		<path fill="#674C3D" d="M62.885,122.939c-0.628,1.247-1.419,2.049-2.375,2.407c-0.955,0.358-2.01,0.248-3.163-0.334
			c-1.154-0.58-1.871-1.361-2.151-2.343c-0.281-0.98-0.105-2.098,0.525-3.352c0.631-1.252,1.423-2.054,2.376-2.402
			c0.953-0.349,2.007-0.232,3.165,0.35c1.158,0.584,1.875,1.363,2.152,2.337C63.69,120.578,63.515,121.69,62.885,122.939z
			 M57.389,120.172c-0.423,0.842-0.583,1.555-0.478,2.142c0.104,0.585,0.475,1.039,1.11,1.36c1.273,0.64,2.337,0.115,3.19-1.577
			c0.854-1.696,0.647-2.863-0.62-3.502c-0.635-0.319-1.222-0.347-1.76-0.083C58.294,118.777,57.813,119.33,57.389,120.172z"/>
		<path fill="#674C3D" d="M66.984,128.58l-0.37-6.91l-0.051-0.013c-0.255,1.324-0.436,2.205-0.545,2.64l-0.948,3.806l-1.55-0.387
			l2.039-8.182l2.361,0.589l0.377,6.739l0.033,0.008l3.613-5.745l2.361,0.589l-2.039,8.182l-1.617-0.403l0.966-3.873
			c0.045-0.183,0.101-0.393,0.166-0.631c0.065-0.237,0.249-0.864,0.549-1.883l-0.05-0.013l-3.707,5.88L66.984,128.58z"/>
		<path fill="#674C3D" d="M81.962,130.363l-1.781-0.048l0.188-6.941l-3.102-0.083l-0.188,6.941l-1.787-0.05l0.229-8.428l6.67,0.181
			L81.962,130.363z"/>
		<path fill="#674C3D" d="M91.499,129.064l-1.758,0.292l-1.141-6.849l-2.037,0.338l0.036,0.778c0.088,1.978,0.106,3.372,0.057,4.185
			c-0.05,0.813-0.22,1.407-0.512,1.784c-0.293,0.376-0.733,0.609-1.322,0.699c-0.318,0.054-0.606,0.059-0.862,0.015l-0.241-1.445
			c0.233,0.039,0.446,0.043,0.64,0.011c0.2-0.034,0.345-0.152,0.432-0.356s0.141-0.563,0.162-1.08
			c0.021-0.516,0.023-1.356,0.007-2.521c-0.017-1.165-0.048-2.264-0.096-3.297l5.25-0.875L91.499,129.064z"/>
		<path fill="#674C3D" d="M98.831,126.699l-4.593,1.577l-2.738-7.974l4.593-1.578l0.476,1.385l-2.901,0.998l0.601,1.75l2.7-0.926
			l0.476,1.386l-2.7,0.927l0.707,2.056l2.901-0.997L98.831,126.699z"/>
		<path fill="#674C3D" d="M107.135,122.532l-1.793,0.953l-4.704-2.34l2.005,3.774l-1.579,0.838l-3.956-7.446l1.579-0.838
			l1.915,3.605l0.754-5.023l1.68-0.893l-0.815,5.018L107.135,122.532z"/>
		<path fill="#674C3D" d="M107.1,113.689c-0.532,0.412-0.79,0.93-0.772,1.556c0.016,0.625,0.301,1.296,0.853,2.011
			c1.149,1.488,2.282,1.801,3.399,0.938c0.469-0.361,0.946-0.916,1.432-1.666l0.916,1.188c-0.372,0.652-0.895,1.237-1.571,1.76
			c-0.97,0.749-1.941,1.027-2.909,0.836c-0.969-0.192-1.879-0.838-2.73-1.94c-0.535-0.693-0.879-1.399-1.029-2.116
			c-0.15-0.716-0.097-1.397,0.161-2.041c0.259-0.644,0.706-1.211,1.341-1.702c0.648-0.501,1.421-0.847,2.317-1.039l0.432,1.504
			c-0.341,0.073-0.672,0.164-0.993,0.271C107.626,113.354,107.344,113.5,107.1,113.689z"/>
	</g>
	<g>
		<path fill="#674C3D" d="M55.881,39.602l0.612-0.347c0.956-0.545,1.805-0.77,2.546-0.679c0.742,0.092,1.314,0.491,1.717,1.199
			c0.869,1.527,0.294,2.865-1.725,4.013l-2.136,1.215l-4.168-7.329l4.632-2.634l0.73,1.283l-3.079,1.751L55.881,39.602z
			 M57.726,42.847l0.521-0.297c0.524-0.299,0.861-0.602,1.009-0.909c0.148-0.308,0.125-0.632-0.068-0.974
			c-0.192-0.337-0.455-0.51-0.786-0.518c-0.332-0.008-0.799,0.159-1.4,0.501l-0.396,0.224L57.726,42.847z"/>
		<path fill="#674C3D" d="M67.733,39.958l-1.257-1.68l-2.891,1.044l0.107,2.096l-1.812,0.653l-0.078-8.974l2.056-0.742l5.687,6.947
			L67.733,39.958z M65.565,37.012c-1.149-1.518-1.799-2.378-1.946-2.578c-0.148-0.199-0.26-0.359-0.336-0.479
			c0.048,0.506,0.12,1.773,0.216,3.803L65.565,37.012z"/>
		<path fill="#674C3D" d="M76.673,38.16l-1.759,0.287l-0.588-3.59l-3.295,0.54l0.589,3.592l-1.766,0.289l-1.363-8.321l1.765-0.289
			l0.535,3.262l3.295-0.541l-0.535-3.261l1.759-0.288L76.673,38.16z"/>
		<path fill="#674C3D" d="M84.89,38.318l-1.781-0.063l0.128-3.637L79.898,34.5l-0.128,3.637l-1.786-0.062l0.296-8.426l1.787,0.062
			l-0.116,3.303l3.337,0.118l0.116-3.303l1.78,0.063L84.89,38.318z"/>
		<path fill="#674C3D" d="M92.401,37.289c-0.218,0.849-0.664,1.415-1.337,1.696c-0.674,0.281-1.564,0.281-2.67-0.002L86.16,38.41
			l2.093-8.167l1.732,0.444l-0.803,3.133l0.559,0.144c1.046,0.268,1.801,0.692,2.266,1.274
			C92.471,35.819,92.603,36.503,92.401,37.289z M88.255,37.436l0.453,0.115c0.57,0.146,1.011,0.159,1.323,0.039
			c0.313-0.121,0.518-0.371,0.615-0.751c0.097-0.379,0.04-0.684-0.173-0.913c-0.213-0.23-0.64-0.426-1.281-0.591l-0.374-0.096
			L88.255,37.436z M94.468,40.539l-1.727-0.442l2.093-8.167l1.726,0.442L94.468,40.539z"/>
		<path fill="#674C3D" d="M99.417,33.51l1.434,0.73l-1.85,3.627l-0.516,0.96l-0.615,1.079l0.031,0.016l6.375-3.934l1.906,0.972
			l-3.83,7.512l-1.418-0.725l1.839-3.606c0.246-0.482,0.642-1.182,1.187-2.1l-0.041-0.021l-6.417,3.978l-1.917-0.978L99.417,33.51z
			 M106.534,34.063c-0.392,0.607-0.871,0.952-1.438,1.032c-0.568,0.079-1.245-0.081-2.033-0.484
			c-0.812-0.414-1.341-0.86-1.586-1.339c-0.246-0.479-0.223-1.063,0.068-1.753l1.403,0.716c-0.156,0.364-0.194,0.657-0.114,0.877
			s0.317,0.431,0.711,0.631c0.346,0.176,0.644,0.23,0.893,0.161c0.249-0.071,0.475-0.258,0.679-0.563L106.534,34.063z"/>
	</g>
	<g opacity="0.75">
		<path fill="#FBFFE2" d="M240,48c0,17.675,14.325,32,32,32s32-14.325,32-32c0-17.676-14.325-32-32-32S240,30.324,240,48z M244,48
			c0-15.465,12.536-28,28-28s28,12.535,28,28c0,15.464-12.536,28-28,28S244,63.464,244,48z"/>
		<path fill="#FBFFE2" d="M274.076,35.096c0.781-0.781,2.047-0.781,2.828,0c0.781,0.78,0.781,2.047,0,2.828l-10.069,10.069
			l10.056,10.07c0.781,0.78,0.781,2.047,0,2.828s-2.047,0.781-2.828,0l-11.477-11.478c-0.781-0.781-0.781-2.047,0-2.828
			L274.076,35.096z"/>
	</g>
	<path opacity="0.75" fill="#FBFFE2" d="M240,128c0,17.675,14.325,32,32,32c17.676,0,32-14.325,32-32c0-17.676-14.324-32-32-32
		C254.325,96,240,110.324,240,128z M262.586,126.586l11.49-11.49c0.781-0.781,2.047-0.781,2.828,0c0.781,0.78,0.781,2.047,0,2.828
		l-10.069,10.069l10.056,10.07c0.781,0.78,0.781,2.047,0,2.828s-2.047,0.781-2.828,0l-11.477-11.478
		C261.805,128.633,261.805,127.367,262.586,126.586z"/>
	<g opacity="0.75">
		<path fill="#FBFFE2" d="M352,16c-17.676,0-32,14.325-32,32c0,17.675,14.324,32,32,32c17.675,0,32-14.325,32-32
			C384,30.325,369.675,16,352,16z M352,76c-15.465,0-28-12.536-28-28c0-15.464,12.535-28,28-28c15.464,0,28,12.536,28,28
			C380,63.464,367.464,76,352,76z"/>
		<path fill="#FBFFE2" d="M349.924,35.095c-0.781-0.781-2.047-0.781-2.828,0c-0.781,0.781-0.781,2.047,0,2.828l10.069,10.07
			l-10.056,10.07c-0.781,0.78-0.781,2.047,0,2.828s2.047,0.781,2.828,0l11.477-11.478c0.781-0.781,0.781-2.047,0-2.828
			L349.924,35.095z"/>
	</g>
	<path opacity="0.75" fill="#FBFFE2" d="M352,96c-17.676,0-32,14.325-32,32c0,17.675,14.324,32,32,32c17.675,0,32-14.325,32-32
		C384,110.325,369.675,96,352,96z M361.414,129.414l-11.477,11.478c-0.781,0.781-2.047,0.781-2.828,0s-0.781-2.048,0-2.828
		l10.056-10.07l-10.069-10.07c-0.781-0.781-0.781-2.047,0-2.828c0.781-0.781,2.047-0.781,2.828,0l11.49,11.491
		C362.195,127.366,362.195,128.634,361.414,129.414z"/>
	<g>
		<path fill="#6FA491" d="M400,48c0,17.675,14.325,32,32,32s32-14.325,32-32c0-17.676-14.325-32-32-32S400,30.324,400,48z M404,48
			c0-15.465,12.536-28,28-28s28,12.535,28,28c0,15.464-12.536,28-28,28S404,63.464,404,48z"/>
		<path fill="#6FA491" d="M434.076,35.096c0.781-0.781,2.047-0.781,2.828,0c0.781,0.78,0.781,2.047,0,2.828l-10.069,10.069
			l10.056,10.07c0.781,0.78,0.781,2.047,0,2.828s-2.047,0.781-2.828,0l-11.477-11.478c-0.781-0.781-0.781-2.047,0-2.828
			L434.076,35.096z"/>
	</g>
	<path fill="#6FA491" d="M400,128c0,17.675,14.325,32,32,32c17.676,0,32-14.325,32-32c0-17.676-14.324-32-32-32
		C414.325,96,400,110.324,400,128z M422.586,126.586l11.49-11.49c0.781-0.781,2.047-0.781,2.828,0c0.781,0.78,0.781,2.047,0,2.828
		l-10.069,10.069l10.056,10.07c0.781,0.78,0.781,2.047,0,2.828s-2.047,0.781-2.828,0l-11.477-11.478
		C421.805,128.633,421.805,127.367,422.586,126.586z"/>
	<g>
		<path fill="#6FA491" d="M512,16c-17.676,0-32,14.325-32,32c0,17.675,14.324,32,32,32c17.675,0,32-14.325,32-32
			C544,30.325,529.675,16,512,16z M512,76c-15.465,0-28-12.536-28-28c0-15.464,12.535-28,28-28c15.464,0,28,12.536,28,28
			C540,63.464,527.464,76,512,76z"/>
		<path fill="#6FA491" d="M509.924,35.095c-0.781-0.781-2.047-0.781-2.828,0c-0.781,0.781-0.781,2.047,0,2.828l10.069,10.07
			l-10.056,10.07c-0.781,0.78-0.781,2.047,0,2.828s2.047,0.781,2.828,0l11.477-11.478c0.781-0.781,0.781-2.047,0-2.828
			L509.924,35.095z"/>
	</g>
	<path fill="#6FA491" d="M512,96c-17.676,0-32,14.325-32,32c0,17.675,14.324,32,32,32c17.675,0,32-14.325,32-32
		C544,110.325,529.675,96,512,96z M521.414,129.414l-11.477,11.478c-0.781,0.781-2.047,0.781-2.828,0s-0.781-2.048,0-2.828
		l10.056-10.07l-10.069-10.07c-0.781-0.781-0.781-2.047,0-2.828c0.781-0.781,2.047-0.781,2.828,0l11.49,11.491
		C522.195,127.366,522.195,128.634,521.414,129.414z"/>
	<path opacity="0.75" fill="#FBFFE2" d="M568,16c-4.419,0-8,3.582-8,8s3.581,8,8,8s8-3.582,8-8S572.419,16,568,16z M568,30
		c-3.313,0-6-2.687-6-6s2.687-6,6-6s6,2.687,6,6S571.313,30,568,30z"/>
	<circle opacity="0.75" fill="#FBFFE2" cx="568" cy="56" r="8"/>
	<path fill="#6FA491" d="M568,80c-4.419,0-8,3.582-8,8s3.581,8,8,8s8-3.582,8-8S572.419,80,568,80z M568,94c-3.313,0-6-2.687-6-6
		s2.687-6,6-6s6,2.687,6,6S571.313,94,568,94z"/>
	<circle fill="#6FA491" cx="568" cy="120" r="8"/>
	<path opacity="0.75" fill="#FBFFE2" d="M288,256c-8.836,0-16,7.164-16,16c0,8.837,7.164,16,16,16c8.837,0,16-7.163,16-16
		C304,263.164,296.837,256,288,256z M292.95,275.535c0.391,0.392,0.39,1.024,0,1.415c-0.391,0.39-1.023,0.391-1.415,0L288,273.414
		l-3.535,3.536c-0.391,0.39-1.023,0.391-1.414,0c-0.392-0.392-0.391-1.024,0-1.415l3.535-3.535l-3.535-3.535
		c-0.392-0.391-0.391-1.023,0-1.414s1.023-0.392,1.414,0l3.535,3.535l3.535-3.535c0.392-0.392,1.023-0.392,1.415,0
		c0.391,0.391,0.391,1.023,0,1.414L289.414,272L292.95,275.535z"/>
	<g opacity="0.75">
		<path fill="#FBFFE2" d="M240,256c-8.837,0-16,7.163-16,16s7.163,16,16,16s16-7.163,16-16S248.837,256,240,256z M240,286
			c-7.731,0-14-6.269-14-14s6.269-14,14-14s14,6.269,14,14S247.731,286,240,286z"/>
		<path fill="#FBFFE2" d="M244.95,267.051c-0.392-0.392-1.023-0.392-1.415,0L240,270.586l-3.535-3.535
			c-0.391-0.392-1.023-0.391-1.414,0s-0.392,1.023,0,1.414l3.535,3.535l-3.535,3.535c-0.391,0.391-0.392,1.023,0,1.415
			c0.391,0.391,1.023,0.39,1.414,0l3.535-3.536l3.535,3.536c0.392,0.391,1.024,0.39,1.415,0c0.39-0.391,0.391-1.023,0-1.415
			L241.414,272l3.536-3.535C245.341,268.074,245.341,267.441,244.95,267.051z"/>
	</g>
	<path opacity="0.5" fill="#231F20" d="M384,256c-8.836,0-16,7.164-16,16c0,8.837,7.164,16,16,16c8.837,0,16-7.163,16-16
		C400,263.164,392.837,256,384,256z M388.95,275.535c0.391,0.392,0.39,1.024,0,1.415c-0.391,0.39-1.023,0.391-1.415,0L384,273.414
		l-3.535,3.536c-0.391,0.39-1.023,0.391-1.414,0c-0.392-0.392-0.391-1.024,0-1.415l3.535-3.535l-3.535-3.535
		c-0.392-0.391-0.391-1.023,0-1.414s1.023-0.392,1.414,0l3.535,3.535l3.535-3.535c0.392-0.392,1.023-0.392,1.415,0
		c0.391,0.391,0.391,1.023,0,1.414L385.414,272L388.95,275.535z"/>
	<g opacity="0.5">
		<path fill="#231F20" d="M336,256c-8.837,0-16,7.163-16,16s7.163,16,16,16s16-7.163,16-16S344.837,256,336,256z M336,286
			c-7.731,0-14-6.269-14-14s6.269-14,14-14s14,6.269,14,14S343.731,286,336,286z"/>
		<path fill="#231F20" d="M340.95,267.051c-0.392-0.392-1.023-0.392-1.415,0L336,270.586l-3.535-3.535
			c-0.391-0.392-1.023-0.391-1.414,0s-0.392,1.023,0,1.414l3.535,3.535l-3.535,3.535c-0.391,0.391-0.392,1.023,0,1.415
			c0.391,0.391,1.023,0.39,1.414,0l3.535-3.536l3.535,3.536c0.392,0.391,1.024,0.39,1.415,0c0.39-0.391,0.391-1.023,0-1.415
			L337.414,272l3.536-3.535C341.341,268.074,341.341,267.441,340.95,267.051z"/>
	</g>
	<path fill="#E9BDAC" d="M276,176c-6.626,0-12,5.37-12,12c0,6.626,5.374,12,12,12c6.631,0,12-5.374,12-12
		C288,181.37,282.631,176,276,176z M278,196c-2.207,0-4-1.793-4-4c0-0.275,0.028-0.545,0.081-0.805h-0.001l0.667-3.195H274v-2h3.209
		l-0.457,2.197l-0.688,3.324c-0.01,0.041-0.021,0.08-0.028,0.12C276.016,191.758,276,191.877,276,192c0,1.104,0.896,2,2,2V196z
		 M276,184c-1.104,0-2-0.896-2-2s0.896-2,2-2s2,0.896,2,2S277.104,184,276,184z"/>
	<path fill="#E9BDAC" d="M328,179.026c0-1.672-1.354-3.026-3.025-3.026c-0.138,0-0.27,0.023-0.404,0.041v-0.008
		c-0.031,0.004-0.061,0.012-0.092,0.018c-0.063,0.011-0.126,0.021-0.188,0.034c-10.397,1.595-18.595,9.792-20.2,20.189
		c-0.019,0.074-0.03,0.152-0.043,0.23c-0.006,0.041-0.017,0.083-0.022,0.124l0.009,0.01c-0.012,0.111-0.033,0.221-0.033,0.335
		c0,1.673,1.354,3.026,3.025,3.026c0.002,0,0.004,0,0.006,0h0.001h2.931h0.001c0.933-0.004,1.71-0.643,1.938-1.505l0.031-0.023
		l1.024-4.398l-0.006-0.014c0.026-0.132,0.041-0.268,0.041-0.406c0-0.746-0.41-1.39-1.012-1.739l0,0l-1.166-0.662l-0.004-0.021
		c-0.54-0.361-0.896-0.977-0.896-1.676c0-0.408,0.123-0.786,0.331-1.104l-0.002-0.01l0.021-0.022
		c1.554-2.375,3.58-4.401,5.932-5.982c0.099-0.091,0.206-0.17,0.322-0.239l0.021-0.021l0.012,0.002
		c0.296-0.168,0.634-0.272,0.998-0.272c0.741,0,1.384,0.404,1.733,1.002l0.012,0.004l0.627,1.058h0.002
		c0.349,0.604,0.994,1.015,1.74,1.015c0.165,0,0.322-0.025,0.475-0.063l0.021,0.01l4.207-0.978l0.012-0.016
		c0.919-0.188,1.611-1,1.611-1.977c0-0.003-0.001-0.006-0.001-0.01h0.001L328,179.026z"/>
	<path fill="#E9BDAC" d="M360.502,177.209c-4.305-2.488-9.809-1.012-12.303,3.291c-1.732,3.005-1.527,6.595,0.221,9.336h-0.008
		l5.854,9.155h0.01c0.17,0.296,0.41,0.558,0.727,0.741c0.957,0.552,2.18,0.224,2.732-0.732l5.641-8.838
		c0.148-0.215,0.295-0.433,0.43-0.663C366.277,185.194,364.807,179.695,360.502,177.209z M359.467,185.999
		c-1.105,1.913-3.553,2.569-5.465,1.465c-1.912-1.106-2.568-3.553-1.467-5.464c1.107-1.912,3.553-2.568,5.467-1.463
		C359.912,181.643,360.566,184.087,359.467,185.999z"/>
	<path fill="#E9BDAC" d="M285,216h-18c-1.657,0-3,1.344-3,3v12c0,1.656,1.343,3,3,3h3v6l6-6h9c1.657,0,3-1.344,3-3v-12
		C288,217.344,286.657,216,285,216z M276,229h-6v-2h6V229z M282,226h-12v-2h12V226z M282,223h-12v-2h12V223z"/>
	<g>
		<polygon fill="#E9BDAC" points="323.236,227.994 328,232.76 328,223.24 		"/>
		<path fill="#E9BDAC" d="M319.566,231.656c-0.012,0.012-0.02,0.027-0.033,0.039c-1.951,1.953-5.117,1.953-7.07,0
			c-0.021-0.021-0.037-0.049-0.059-0.071l-2.232-2.231l-5.881,5.879c0.48,1.019,1.508,1.729,2.709,1.729h18
			c1.191,0,2.213-0.701,2.695-1.707l-5.881-5.881L319.566,231.656z"/>
		<polygon fill="#E9BDAC" points="304,223.229 304,232.744 308.762,227.986 		"/>
		<path fill="#E9BDAC" d="M313.877,230.283h0.002c1.172,1.17,3.07,1.17,4.24-0.002c0.033-0.031,0.055-0.068,0.084-0.102l2.729-2.721
			l6.768-6.748C327.215,219.702,326.193,219,325,219h-18c-1.193,0-2.215,0.702-2.699,1.711l6.764,6.762L313.877,230.283z"/>
	</g>
	<path fill="#E9BDAC" d="M366,222c-0.355,0-0.685,0.101-0.974,0.264l-0.008-0.005l-3.344,1.669c0.208-0.604,0.325-1.252,0.325-1.928
		c0-3.313-2.687-6-6-6s-6,2.687-6,6c0,0.252,0.019,0.498,0.05,0.741l-4.823,2.415c-0.01,0.004-0.019,0.009-0.027,0.014l-0.199,0.1
		l-0.007,0.012C344.401,225.629,344,226.265,344,227v11c0,1.104,0.896,2,2,2c0.364,0,0.701-0.105,0.996-0.275l0.007,0.004
		l5.085-2.563l7.112,2.666h0.001c0.244,0.106,0.515,0.168,0.799,0.168c0.413,0,0.797-0.125,1.116-0.34l5.656-2.815
		c0.011-0.005,0.021-0.011,0.03-0.015l0.188-0.094l0.007-0.013c0.597-0.347,1.002-0.985,1.002-1.724v-11
		C368,222.896,367.104,222,366,222z M351,235.5l-5,2.5v-11l4.635-2.317l0.365,0.735V235.5z M356,219c1.656,0,3,1.344,3,3
		c0,0.844-0.352,1.604-0.912,2.148c-0.54,0.525-1.275,0.852-2.088,0.852c-1.57,0-2.846-1.212-2.975-2.749
		C353.019,222.166,353,222.086,353,222C353,220.344,354.344,219,356,219z M360,238l-1-0.375l-6-2.25L352,235v-7.568l1,2.012l0,0
		l1.153,2.321c0.006,0.016,0.015,0.03,0.022,0.044l0.097,0.197h0.008c0.348,0.592,0.983,0.994,1.72,0.994
		c0.732,0,1.367-0.398,1.715-0.986h0.009l2.276-4.601V238z M366,235l-5,2.5v-11l5-2.5V235z"/>
	<path fill="#5D463A" d="M406,182c-0.355,0-0.685,0.101-0.974,0.264l-0.008-0.005l-3.344,1.669c0.208-0.604,0.325-1.252,0.325-1.928
		c0-3.313-2.687-6-6-6s-6,2.687-6,6c0,0.252,0.019,0.498,0.05,0.741l-4.823,2.415c-0.01,0.004-0.019,0.009-0.027,0.014l-0.199,0.1
		l-0.007,0.012C384.401,185.629,384,186.265,384,187v11c0,1.104,0.896,2,2,2c0.364,0,0.701-0.105,0.996-0.275l0.007,0.004
		l5.085-2.563l7.112,2.666h0.001c0.244,0.106,0.515,0.168,0.799,0.168c0.413,0,0.797-0.125,1.116-0.34l5.656-2.815
		c0.011-0.005,0.021-0.011,0.03-0.015l0.188-0.094l0.007-0.013c0.597-0.347,1.002-0.985,1.002-1.724v-11
		C408,182.896,407.104,182,406,182z M391,195.5l-5,2.5v-11l4.635-2.317l0.365,0.735V195.5z M396,179c1.656,0,3,1.344,3,3
		c0,0.844-0.352,1.604-0.912,2.148c-0.54,0.525-1.275,0.852-2.088,0.852c-1.57,0-2.846-1.212-2.975-2.749
		C393.019,182.166,393,182.086,393,182C393,180.344,394.344,179,396,179z M400,198l-1-0.375l-6-2.25L392,195v-7.568l1,2.012l0,0
		l1.153,2.321c0.006,0.016,0.015,0.03,0.022,0.044l0.097,0.197h0.008c0.348,0.592,0.983,0.994,1.72,0.994
		c0.732,0,1.367-0.398,1.715-0.986h0.009l2.276-4.601V198z M406,195l-5,2.5v-11l5-2.5V195z"/>
	<g>
		<path fill="#6FA491" d="M247,180h-3v-3c0-0.553-0.447-1-1-1h-16c-1.658,0-3,1.342-3,3c0,0.115,0.021,0.225,0.034,0.337
			L224,179.375V197c0,1.658,1.342,3,3,3h20c0.553,0,1-0.447,1-1v-18C248,180.447,247.553,180,247,180z M227,178h13.184
			c0.412,1.163,1.511,2,2.816,2h-16c-0.553,0-1-0.447-1-1S226.447,178,227,178z M246,196.184c-0.849,0.301-1.516,0.968-1.816,1.816
			H227c-0.553,0-1-0.447-1-1v-2.184c0.314,0.111,0.647,0.184,1,0.184c0.207,0,0.404-0.036,0.604-0.061
			c2.472-0.303,4.396-2.387,4.396-4.939c0-2.547-1.726-4.628-4.19-4.938l0.19-0.023v-0.002c-1-0.178-2-0.987-2-1.962v-1.259
			c0.314,0.111,0.647,0.184,1,0.184h17.184c0.301,0.85,0.968,1.516,1.816,1.816V196.184z"/>
		<path fill="#6FA491" d="M243.022,184h-12.43c2.039,1.223,3.407,3.448,3.407,6s-1.368,4.776-3.407,6h12.43
			c0.279-0.37,0.607-0.698,0.978-0.978v-10.045C243.63,184.697,243.302,184.37,243.022,184z M240,192h-2c-1.105,0-2-0.895-2-2
			s0.895-2,2-2h2c1.105,0,2,0.895,2,2S241.105,192,240,192z"/>
	</g>
	<g>
		<path fill="#6FA491" d="M245.001,225.001L245.001,225.001c-0.473-0.366-0.782-0.933-0.782-1.575c0-0.187,0.034-0.363,0.081-0.535
			l-0.005-0.016l0.063-0.166c0.011-0.028,0.02-0.057,0.031-0.084l0.606-1.625c-4.42,0-8,3.584-8,8c0,2.761,2.238,5,5,5s5-2.239,5-5
			C246.995,227.367,246.213,225.914,245.001,225.001z"/>
		<path fill="#6FA491" d="M232.993,225.018L232.993,225.018c-0.473-0.366-0.77-0.949-0.77-1.592c0-0.187,0.034-0.363,0.081-0.535
			l-0.005-0.016l0.063-0.166c0.011-0.028,0.02-0.057,0.031-0.084L233,221c-4.42,0-8,3.584-8,8c0,2.761,2.238,5,5,5s5-2.239,5-5
			C235,227.367,234.205,225.93,232.993,225.018z"/>
	</g>
	<path fill="#F7DA7E" d="M206,182c0,0.552-0.447,1-1,1h-1c-0.553,0-1-0.448-1-1h-22c0,0.553-0.447,1-1,1h-1c-0.552,0-1-0.447-1-1
		c-1.104,0-2,0.896-2,2v8h2v-1c0-0.553,0.448-1,1-1h1c0.553,0,1,0.447,1,1v1c0,0.036-0.017,0.066-0.021,0.102
		c1.011,0.202,1.911,0.707,2.603,1.42l2.456,2.479h1.967l0.001-7.186c0-0.553,0.447-1,1-1c0.177,0,0.334,0.058,0.479,0.139
		l0.011-0.006l9.003,5.189v0.016c0.295,0.174,0.502,0.48,0.502,0.848s-0.207,0.674-0.502,0.848v0.016l-5.145,2.969
		c0.405,0.625,0.646,1.367,0.646,2.168v6h9c0-0.553,0.447-1,1-1h1c0.553,0,1,0.447,1,1c1.104,0,2-0.896,2-2v-20
		C208,182.896,207.104,182,206,182z M181,187c0,0.553-0.447,1-1,1h-1c-0.552,0-1-0.447-1-1v-1c0-0.553,0.448-1,1-1h1
		c0.553,0,1,0.447,1,1V187z M206,202c0,0.552-0.447,1-1,1h-1c-0.553,0-1-0.448-1-1v-1c0-0.553,0.447-1,1-1h1c0.553,0,1,0.447,1,1
		V202z M206,197c0,0.552-0.447,1-1,1h-1c-0.553,0-1-0.448-1-1v-1c0-0.553,0.447-1,1-1h1c0.553,0,1,0.447,1,1V197z M206,192
		c0,0.552-0.447,1-1,1h-1c-0.553,0-1-0.448-1-1v-1c0-0.553,0.447-1,1-1h1c0.553,0,1,0.447,1,1V192z M206,187c0,0.552-0.447,1-1,1h-1
		c-0.553,0-1-0.448-1-1v-1c0-0.553,0.447-1,1-1h1c0.553,0,1,0.447,1,1V187z"/>
	<g>
		<path fill="#F7DA7E" d="M162,196h4c0.552,0,1-0.447,1-1s-0.448-1-1-1h-4c-0.552,0-1,0.447-1,1S161.448,196,162,196z"/>
		<circle fill="#F7DA7E" cx="176" cy="207" r="5"/>
		<path fill="#F7DA7E" d="M190,198h-4.793l-3.053-3.082C181.608,194.354,180.847,194,180,194h-8c-0.824,0-1.57,0.333-2.112,0.871
			l-0.012,0.005L166.77,198H162c-1.104,0-2,0.896-2,2v16c0,1.104,0.896,2,2,2h28c1.104,0,2-0.896,2-2v-16
			C192,198.896,191.104,198,190,198z M176,214c-3.867,0-7-3.133-7-7c0-3.656,2.805-6.654,6.381-6.969h1.238
			c3.576,0.314,6.381,3.313,6.381,6.969C183,210.867,179.867,214,176,214z M190,203c0,0.553-0.447,1-1,1h-3c-0.553,0-1-0.447-1-1v-2
			c0-0.553,0.447-1,1-1h3c0.553,0,1,0.447,1,1V203z"/>
	</g>
	<path fill="#625C5A" d="M206,246c0,0.552-0.447,1-1,1h-1c-0.553,0-1-0.448-1-1h-22c0,0.553-0.447,1-1,1h-1c-0.552,0-1-0.447-1-1
		c-1.104,0-2,0.896-2,2v8h2v-1c0-0.553,0.448-1,1-1h1c0.553,0,1,0.447,1,1v1c0,0.036-0.017,0.066-0.021,0.102
		c1.011,0.202,1.911,0.707,2.603,1.42l2.456,2.479h1.967l0.001-7.186c0-0.553,0.447-1,1-1c0.177,0,0.334,0.058,0.479,0.139
		l0.011-0.006l9.003,5.189v0.016c0.295,0.174,0.502,0.48,0.502,0.848s-0.207,0.674-0.502,0.848v0.016l-5.145,2.969
		c0.405,0.625,0.646,1.367,0.646,2.168v6h9c0-0.553,0.447-1,1-1h1c0.553,0,1,0.447,1,1c1.104,0,2-0.896,2-2v-20
		C208,246.896,207.104,246,206,246z M181,251c0,0.553-0.447,1-1,1h-1c-0.552,0-1-0.447-1-1v-1c0-0.553,0.448-1,1-1h1
		c0.553,0,1,0.447,1,1V251z M206,266c0,0.552-0.447,1-1,1h-1c-0.553,0-1-0.448-1-1v-1c0-0.553,0.447-1,1-1h1c0.553,0,1,0.447,1,1
		V266z M206,261c0,0.552-0.447,1-1,1h-1c-0.553,0-1-0.448-1-1v-1c0-0.553,0.447-1,1-1h1c0.553,0,1,0.447,1,1V261z M206,256
		c0,0.552-0.447,1-1,1h-1c-0.553,0-1-0.448-1-1v-1c0-0.553,0.447-1,1-1h1c0.553,0,1,0.447,1,1V256z M206,251c0,0.552-0.447,1-1,1h-1
		c-0.553,0-1-0.448-1-1v-1c0-0.553,0.447-1,1-1h1c0.553,0,1,0.447,1,1V251z"/>
	<g>
		<path fill="#625C5A" d="M162,260h4c0.552,0,1-0.447,1-1s-0.448-1-1-1h-4c-0.552,0-1,0.447-1,1S161.448,260,162,260z"/>
		<circle fill="#625C5A" cx="176" cy="271" r="5"/>
		<path fill="#625C5A" d="M190,262h-4.793l-3.053-3.082C181.608,258.354,180.847,258,180,258h-8c-0.824,0-1.57,0.333-2.112,0.871
			l-0.012,0.005L166.77,262H162c-1.104,0-2,0.896-2,2v16c0,1.104,0.896,2,2,2h28c1.104,0,2-0.896,2-2v-16
			C192,262.896,191.104,262,190,262z M176,278c-3.867,0-7-3.133-7-7c0-3.656,2.805-6.654,6.381-6.969h1.238
			c3.576,0.314,6.381,3.313,6.381,6.969C183,274.867,179.867,278,176,278z M190,267c0,0.553-0.447,1-1,1h-3c-0.553,0-1-0.447-1-1v-2
			c0-0.553,0.447-1,1-1h3c0.553,0,1,0.447,1,1V267z"/>
	</g>
	<path fill="#3B876F" d="M448,188c0-0.779-0.451-1.449-1.103-1.778v-0.005l-0.101-0.05c-0.008-0.003-0.015-0.008-0.021-0.011
		l-19.878-9.939l-0.004,0.003c-0.27-0.136-0.57-0.22-0.894-0.22c-1.104,0-2,0.896-2,2c0,0.192,0.036,0.375,0.087,0.551l-0.003,0.002
		l0.015,0.035c0.032,0.107,0.073,0.21,0.123,0.309l2.562,6.414L440,188l-13.216,2.69l-2.563,6.412
		c-0.05,0.099-0.091,0.202-0.124,0.31l-0.014,0.035l0.003,0.002C424.036,197.625,424,197.808,424,198c0,1.104,0.896,2,2,2
		c0.279,0,0.544-0.058,0.785-0.16l19.954-9.984C447.478,189.561,448,188.843,448,188z"/>
	<path fill="#E8E5E2" d="M408,228c0-0.779-0.451-1.449-1.103-1.778v-0.005l-0.101-0.05c-0.008-0.003-0.015-0.008-0.021-0.011
		l-19.878-9.939l-0.004,0.003c-0.27-0.136-0.57-0.22-0.894-0.22c-1.104,0-2,0.896-2,2c0,0.192,0.036,0.375,0.087,0.551l-0.003,0.002
		l0.015,0.035c0.032,0.107,0.073,0.21,0.123,0.309l2.562,6.414L400,228l-13.216,2.69l-2.563,6.412
		c-0.05,0.099-0.091,0.202-0.124,0.31l-0.014,0.035l0.003,0.002C384.036,237.625,384,237.808,384,238c0,1.104,0.896,2,2,2
		c0.279,0,0.544-0.058,0.785-0.16l19.954-9.984C407.478,229.561,408,228.843,408,228z"/>
	<path fill="#F8F8F9" d="M448,228c0-0.779-0.451-1.449-1.103-1.778v-0.005l-0.101-0.05c-0.008-0.003-0.015-0.008-0.021-0.011
		l-19.878-9.939l-0.004,0.003c-0.27-0.136-0.57-0.22-0.894-0.22c-1.104,0-2,0.896-2,2c0,0.192,0.036,0.375,0.087,0.551l-0.003,0.002
		l0.015,0.035c0.032,0.107,0.073,0.21,0.123,0.309l2.562,6.414L440,228l-13.216,2.69l-2.563,6.412
		c-0.05,0.099-0.091,0.202-0.124,0.31l-0.014,0.035l0.003,0.002C424.036,237.625,424,237.808,424,238c0,1.104,0.896,2,2,2
		c0.279,0,0.544-0.058,0.785-0.16l19.954-9.984C447.478,229.561,448,228.843,448,228z"/>
	<path fill="#3B876F" d="M527.463,183.355c0.33-0.357,0.537-0.831,0.537-1.355c0-1.104-0.896-2-2-2c-0.556,0-1.058,0.227-1.42,0.594
		l-0.008-0.008l-11.578,11.58l-5.573-5.587l-0.007,0.007C507.053,186.224,506.553,186,506,186c-1.104,0-2,0.896-2,2
		c0,0.553,0.224,1.053,0.586,1.414l-0.006,0.006l6.986,6.971C511.93,196.766,512.438,197,513,197c0.553,0,1.052-0.224,1.414-0.586
		l0,0l12.982-12.984c0.011-0.012,0.021-0.022,0.033-0.033l0.037-0.038L527.463,183.355z"/>
	<g>
		<circle fill="#8F8684" cx="467" cy="188" r="3"/>
		<circle fill="#8F8684" cx="485" cy="188" r="3"/>
		<circle fill="#8F8684" cx="476" cy="188" r="3"/>
	</g>
	<circle fill="#3B876F" cx="573" cy="277" r="3"/>
	<path fill="#8D2B2E" d="M478.844,228l5.566-5.566c0.786-0.785,0.786-2.059,0-2.844c-0.785-0.786-2.059-0.786-2.844,0L476,225.156
		l-5.566-5.566c-0.785-0.786-2.059-0.786-2.844,0c-0.786,0.785-0.786,2.059,0,2.844l5.566,5.566l-5.566,5.566
		c-0.786,0.785-0.786,2.059,0,2.844c0.785,0.786,2.059,0.786,2.844,0l5.566-5.566l5.566,5.566c0.785,0.786,2.059,0.786,2.844,0
		c0.786-0.785,0.786-2.059,0-2.844L478.844,228z"/>
	<path fill="#625C5A" d="M576,149c0-1.104-0.896-2-2-2c-0.553,0-1.053,0.225-1.414,0.586h-0.001l-4.579,4.594l-4.59-4.592
		C563.053,147.225,562.553,147,562,147c-1.104,0-2,0.896-2,2c0,0.557,0.229,1.06,0.596,1.422l-0.002,0.001l5.971,5.965
		c0.016,0.017,0.031,0.032,0.048,0.048l0.05,0.051h0.012c0.354,0.315,0.814,0.514,1.326,0.514c0.523,0,0.996-0.206,1.353-0.535
		h0.009l0.041-0.04c0.007-0.008,0.015-0.016,0.021-0.023l5.99-5.987l0,0C575.776,150.053,576,149.553,576,149z"/>
	<path fill="#625C5A" d="M576,187c0,1.104-0.896,2-2,2c-0.553,0-1.053-0.225-1.414-0.586h-0.001l-4.579-4.594l-4.59,4.592
		C563.053,188.775,562.553,189,562,189c-1.104,0-2-0.896-2-2c0-0.557,0.229-1.06,0.596-1.422l-0.002-0.001l5.971-5.965
		c0.016-0.017,0.031-0.032,0.048-0.048l0.05-0.051h0.012c0.354-0.315,0.814-0.514,1.326-0.514c0.523,0,0.996,0.206,1.353,0.535
		h0.009l0.041,0.04c0.007,0.008,0.015,0.016,0.021,0.023l5.99,5.987l0,0C575.776,185.947,576,186.447,576,187z"/>
	<path fill="#5D463A" d="M556,216c1.104,0,2,0.896,2,2c0,0.553-0.225,1.053-0.586,1.414v0.001l-8.594,8.579l8.592,8.59
		c0.363,0.363,0.588,0.863,0.588,1.416c0,1.104-0.896,2-2,2c-0.557,0-1.06-0.229-1.422-0.596l-0.001,0.002l-9.965-9.971
		c-0.017-0.016-0.032-0.031-0.048-0.048l-0.051-0.05v-0.012C544.198,228.973,544,228.512,544,228c0-0.523,0.206-0.996,0.535-1.353
		v-0.009l0.04-0.041c0.008-0.007,0.016-0.015,0.023-0.021l9.987-9.99l0,0C554.947,216.224,555.447,216,556,216z"/>
	<path fill="#5D463A" d="M568,228c0,1.104-0.896,2-2,2h-18c-1.104,0-2-0.896-2-2l0,0c0-1.104,0.896-2,2-2h18
		C567.104,226,568,226.896,568,228L568,228z"/>
	<g>
		<path fill="#5D463A" d="M526,226h-20c-1.104,0-2,0.896-2,2s0.896,2,2,2h20c1.104,0,2-0.896,2-2S527.104,226,526,226z"/>
		<path fill="#5D463A" d="M506,222h20c1.104,0,2-0.896,2-2s-0.896-2-2-2h-20c-1.104,0-2,0.896-2,2S504.896,222,506,222z"/>
		<path fill="#5D463A" d="M526,234h-20c-1.104,0-2,0.896-2,2s0.896,2,2,2h20c1.104,0,2-0.896,2-2S527.104,234,526,234z"/>
	</g>
	<path fill-rule="evenodd" clip-rule="evenodd" fill="#5D463A" d="M429,256h14c2.762,0,5,2.238,5,5v14c0,2.762-2.238,5-5,5h-14
		c-2.762,0-5-2.238-5-5v-14C424,258.238,426.238,256,429,256z"/>
	<path fill="#F8F8F9" d="M439.128,267.59v-0.078c1.256-0.522,1.807-1.589,1.807-3.012c0-2.983-2.917-3.381-2.91-3.379
		c-0.374-0.056-4.315-0.123-5.864-0.123c-0.305,0-1.151,0.065-1.151,1.224c0,2.772,0,8.921,0,11.624
		c0,0.654,0.688,1.153,1.151,1.153c1.55,0,4.112,0,4.112,0c-1.099,0,5.468,0.329,5.245-4.083
		C441.434,269.261,440.455,267.908,439.128,267.59z M435.855,266.738c-0.586,0.03-1.338,0.095-1.338,0.095v-3.5
		c0,0,0.35-0.024,1.167,0c1.817,0.054,1.727,1.258,1.727,1.788C437.411,266.729,435.862,266.737,435.855,266.738z M436.268,272.666
		c-1.122,0-1.75,0-1.75,0v-3.5c0,0,1.063-0.018,1.75,0c-0.176-0.004,1.75-0.1,1.75,1.75
		C438.018,271.355,437.806,272.666,436.268,272.666z"/>
	<path fill-rule="evenodd" clip-rule="evenodd" fill="#356CA2" d="M464,256h24v24h-24V256z"/>
	<path fill="#F8F8F9" d="M479.128,267.59v-0.078c1.256-0.522,1.807-1.589,1.807-3.012c0-2.983-2.917-3.381-2.91-3.379
		c-0.374-0.056-4.315-0.123-5.864-0.123c-0.305,0-1.151,0.065-1.151,1.224c0,2.772,0,8.921,0,11.624
		c0,0.654,0.688,1.153,1.151,1.153c1.55,0,4.112,0,4.112,0c-1.099,0,5.468,0.329,5.245-4.083
		C481.434,269.261,480.455,267.908,479.128,267.59z M475.855,266.738c-0.586,0.03-1.338,0.095-1.338,0.095v-3.5
		c0,0,0.35-0.024,1.167,0c1.817,0.054,1.727,1.258,1.727,1.788C477.411,266.729,475.862,266.737,475.855,266.738z M476.268,272.666
		c-1.122,0-1.75,0-1.75,0v-3.5c0,0,1.063-0.018,1.75,0c-0.176-0.004,1.75-0.1,1.75,1.75
		C478.018,271.355,477.806,272.666,476.268,272.666z"/>
	<path display="none" fill="#485E97" d="M504,256v24h24v-24H504z M520.288,268H517v10h-3.009l-0.002-10h-2.981L511,265h3
		c0,0,0-2.188,0-3.183c0-4.643,4.396-3.817,4.396-3.817h2.11l-0.013,3h-2.094c-1.428,0-1.399,0.724-1.399,0.724V265h3.993
		L520.288,268z"/>
	<rect x="504" y="256" fill="#485E97" width="24" height="24"/>
	<path fill-rule="evenodd" clip-rule="evenodd" fill="#F8F8F9" d="M520.506,257.505h-2.11c0,0-4.405-0.33-4.405,4.313
		c0,0.994,0,3.191,0,3.191H511l0.008,2.502h2.981l0.002,10.985h2.997v-10.985h3.3l0.705-2.502h-3.988v-3.285
		c0,0-0.033-1.219,1.395-1.219h2.094L520.506,257.505z"/>
	<path opacity="0.15" fill="#231F20" d="M223.607,140c2.222-6.627-5.204-12-16.586-12c-11.382,0-22.41,5.373-24.629,12
		c-0.784,2.34-0.363,4.52,1.008,6.364h-0.002l0.039,0.046c0.12,0.165,0.249,0.323,0.388,0.479l5.877,12.176h0.014
		c0.421,0.56,1.36,0.934,2.582,0.934c1.243,0,2.452-0.386,3.249-0.966h0.014l21.948-12.112c0.285-0.184,0.56-0.371,0.831-0.561
		l0.015-0.012h0C220.949,144.51,222.824,142.332,223.607,140z M199.324,145c-5.693,0-7.405-2.686-6.293-6
		c1.111-3.314,6.623-6,12.315-6c5.691,0,10.185,3.062,8.292,6C211.625,142.125,205.015,145,199.324,145z"/>
	<path fill="#3B876F" d="M216,120c0-13.256-10.744-24-24-24s-24,10.744-24,24c0,4.678,1.343,9.041,3.658,12.731h-0.003l0.063,0.093
		c0.205,0.324,0.417,0.643,0.638,0.956l16.258,24.355h0.016c0.709,1.117,1.949,1.864,3.371,1.864c1.448,0,2.705-0.777,3.407-1.93
		h0.016l16.175-24.225c0.26-0.366,0.51-0.739,0.749-1.121l0.015-0.021h-0.001C214.664,129.018,216,124.666,216,120z M192,130
		c-6.629,0-12-5.372-12-12s5.371-12,12-12s12,5.372,12,12S198.629,130,192,130z"/>
	<g>
		<path fill="#7D7D7F" d="M80,236c-21.115,0-39.835,10.23-51.493,26C40.164,277.77,58.885,288,80,288
			c21.115,0,39.836-10.23,51.494-26C119.836,246.23,101.115,236,80,236z"/>
		<circle fill="#7D7D7F" cx="80" cy="200" r="24"/>
	</g>
	<path fill="#674C3D" d="M219.596,52.455l-0.944,2.815c-0.829,2.319-3.045,3.98-5.651,3.98h-6c-1.657,0-3-1.344-3-3v-16.5
		c0-1.656,1.343-3,3-3v-3h-12v3c1.657,0,3,1.344,3,3v16.5c0,1.656-1.343,3-3,3v3h24l3-9l-0.017-0.017L219.596,52.455z"/>
	<path fill="#674C3D" d="M183,48h-3v3c1.657,0,3,1.343,3,3v0.01v2.459v0.011c0,0.015-0.003,0.028-0.003,0.042
		c-0.011,0.76-0.302,1.45-0.775,1.972c-0.005,0.005-0.01,0.009-0.015,0.015c-0.09,0.098-0.187,0.192-0.29,0.277
		c-0.033,0.027-0.071,0.049-0.105,0.076c-0.078,0.06-0.156,0.12-0.24,0.172c-0.122,0.075-0.249,0.141-0.38,0.198
		c-0.031,0.012-0.062,0.022-0.093,0.034C179.818,59.732,178.442,60,177,60c-2.453,0-4.646-1.107-6.114-2.846
		c-0.55-0.787-1.026-1.627-1.429-2.509C168.53,52.62,168,50.374,168,48s0.53-4.62,1.457-6.645c0.403-0.882,0.879-1.722,1.429-2.509
		C172.354,37.107,174.547,36,177,36c4.439,0,8.306,2.417,10.381,6H189v-6.164C185.385,34.031,181.318,33,177.002,33H177
		c-8.285,0-15,6.716-15,15c0,8.285,6.715,15,15,15h0.001c4.316,0,8.383-1.031,11.998-2.836V54c0-1.657,1.343-3,3-3v-3h-3H183z"/>
</g>
</svg>
