<?xml version="1.0" encoding="utf-8"?>
<!-- Generator: Adobe Illustrator 16.0.2, SVG Export Plug-In . SVG Version: 6.00 Build 0)  -->
<!DOCTYPE svg PUBLIC "-//W3C//DTD SVG 1.1//EN" "http://www.w3.org/Graphics/SVG/1.1/DTD/svg11.dtd">
<svg version="1.1" xmlns="http://www.w3.org/2000/svg" xmlns:xlink="http://www.w3.org/1999/xlink" x="0px" y="0px" width="704px"
	 height="304px" viewBox="0 0 704 304" enable-background="new 0 0 704 304" xml:space="preserve">
<g id="fragments" display="none">
	<rect id="_x3C_Фрагмент_x3E_" x="16" y="16" display="inline" fill="none" width="128" height="128"/>
	<rect id="_x3C_Фрагмент_x3E__1_" x="16" y="160" display="inline" fill="none" width="128" height="128"/>
	<rect id="_x3C_Фрагмент_x3E__2_" x="160" y="16" display="inline" fill="none" width="64" height="64"/>
	<rect id="_x3C_Фрагмент_x3E__3_" x="160" y="96" display="inline" fill="none" width="64" height="64"/>
	<rect id="_x3C_Фрагмент_x3E__4_" x="240" y="16" display="inline" fill="none" width="64" height="64"/>
	<rect id="_x3C_Фрагмент_x3E__5_" x="240" y="96" display="inline" fill="none" width="64" height="64"/>
	<rect id="_x3C_Фрагмент_x3E__6_" x="320" y="16" display="inline" fill="none" width="64" height="64"/>
	<rect id="_x3C_Фрагмент_x3E__7_" x="320" y="96" display="inline" fill="none" width="64" height="64"/>
	<rect id="_x3C_Фрагмент_x3E__8_" x="400" y="16" display="inline" fill="none" width="64" height="64"/>
	<rect id="_x3C_Фрагмент_x3E__9_" x="400" y="96" display="inline" fill="none" width="64" height="64"/>
	<rect id="_x3C_Фрагмент_x3E__10_" x="480" y="16" display="inline" fill="none" width="64" height="64"/>
	<rect id="_x3C_Фрагмент_x3E__11_" x="480" y="96" display="inline" fill="none" width="64" height="64"/>
	<rect id="_x3C_Фрагмент_x3E__12_" x="560" y="16" display="inline" fill="none" width="16" height="16"/>
	<rect id="_x3C_Фрагмент_x3E__13_" x="560" y="48" display="inline" fill="none" width="16" height="16"/>
	<rect id="_x3C_Фрагмент_x3E__14_" x="560" y="80" display="inline" fill="none" width="16" height="16"/>
	<rect id="_x3C_Фрагмент_x3E__15_" x="560" y="112" display="inline" fill="none" width="16" height="16"/>
	<rect id="_x3C_Фрагмент_x3E__16_" x="560" y="144" display="inline" fill="none" width="16" height="16"/>
	<rect id="_x3C_Фрагмент_x3E__17_" x="560" y="176" display="inline" fill="none" width="16" height="16"/>
	<rect id="_x3C_Фрагмент_x3E__18_" x="160" y="176" display="inline" fill="none" width="48" height="48"/>
	<rect id="_x3C_Фрагмент_x3E__19_" x="160" y="240" display="inline" fill="none" width="48" height="48"/>
	<rect id="_x3C_Фрагмент_x3E__20_" x="224" y="176" display="inline" fill="none" width="24" height="24"/>
	<rect id="_x3C_Фрагмент_x3E__21_" x="224" y="216" display="inline" fill="none" width="24" height="24"/>
	<rect id="_x3C_Фрагмент_x3E__22_" x="264" y="176" display="inline" fill="none" width="24" height="24"/>
	<rect id="_x3C_Фрагмент_x3E__23_" x="264" y="216" display="inline" fill="none" width="24" height="24"/>
	<rect id="_x3C_Фрагмент_x3E__24_" x="304" y="176" display="inline" fill="none" width="24" height="24"/>
	<rect id="_x3C_Фрагмент_x3E__25_" x="304" y="216" display="inline" fill="none" width="24" height="24"/>
	<rect id="_x3C_Фрагмент_x3E__26_" x="344" y="176" display="inline" fill="none" width="24" height="24"/>
	<rect id="_x3C_Фрагмент_x3E__27_" x="344" y="216" display="inline" fill="none" width="24" height="24"/>
	<rect id="_x3C_Фрагмент_x3E__28_" x="384" y="176" display="inline" fill="none" width="24" height="24"/>
	<rect id="_x3C_Фрагмент_x3E__29_" x="384" y="216" display="inline" fill="none" width="24" height="24"/>
	<rect id="_x3C_Фрагмент_x3E__30_" x="424" y="176" display="inline" fill="none" width="24" height="24"/>
	<rect id="_x3C_Фрагмент_x3E__31_" x="424" y="216" display="inline" fill="none" width="24" height="24"/>
	<rect id="_x3C_Фрагмент_x3E__32_" x="464" y="176" display="inline" fill="none" width="24" height="24"/>
	<rect id="_x3C_Фрагмент_x3E__33_" x="464" y="216" display="inline" fill="none" width="24" height="24"/>
	<rect id="_x3C_Фрагмент_x3E__34_" x="504" y="176" display="inline" fill="none" width="24" height="24"/>
	<rect id="_x3C_Фрагмент_x3E__35_" x="504" y="216" display="inline" fill="none" width="24" height="24"/>
	<rect id="_x3C_Фрагмент_x3E__36_" x="544" y="216" display="inline" fill="none" width="24" height="24"/>
	<rect id="_x3C_Фрагмент_x3E__45_" x="584" y="216" display="inline" fill="none" width="24" height="24"/>
	<rect id="_x3C_Фрагмент_x3E__46_" x="624" y="216" display="inline" fill="none" width="24" height="24"/>
	<rect id="_x3C_Фрагмент_x3E__47_" x="664" y="216" display="inline" fill="none" width="24" height="24"/>
	<rect id="_x3C_Фрагмент_x3E__37_" x="224" y="256" display="inline" fill="none" width="32" height="32"/>
	<rect id="_x3C_Фрагмент_x3E__38_" x="272" y="256" display="inline" fill="none" width="32" height="32"/>
	<rect id="_x3C_Фрагмент_x3E__39_" x="320" y="256" display="inline" fill="none" width="32" height="32"/>
	<rect id="_x3C_Фрагмент_x3E__40_" x="368" y="256" display="inline" fill="none" width="32" height="32"/>
	<rect id="_x3C_Фрагмент_x3E__41_" x="424" y="256" display="inline" fill="none" width="24" height="24"/>
	<rect id="_x3C_Фрагмент_x3E__42_" x="464" y="256" display="inline" fill="none" width="24" height="24"/>
	<rect id="_x3C_Фрагмент_x3E__43_" x="504" y="256" display="inline" fill="none" width="24" height="24"/>
	<rect id="_x3C_Фрагмент_x3E__44_" x="570" y="274" display="inline" fill="none" width="6" height="6"/>
</g>
<g id="logo_x5F_big">
	<g display="none">
		<path display="inline" fill="#674C3D" d="M80,13c-36.992,0-67,30.008-67,67c0,37.007,30.008,67,67,67c37.007,0,67-29.993,67-67
			C147,43.008,117.007,13,80,13z M80,143.859c-35.26,0-63.859-28.59-63.859-63.859c0-35.26,28.599-63.859,63.859-63.859
			c35.27,0,63.859,28.599,63.859,63.859C143.859,115.27,115.27,143.859,80,143.859z"/>
		<path display="inline" fill="#674C3D" d="M80,16.141C44.74,16.141,16.141,44.74,16.141,80c0,35.27,28.599,63.859,63.859,63.859
			c35.27,0,63.859-28.59,63.859-63.859C143.859,44.74,115.27,16.141,80,16.141z M80,140.719c-33.526,0-60.719-27.184-60.719-60.719
			c0-33.526,27.193-60.719,60.719-60.719c33.535,0,60.719,27.193,60.719,60.719C140.719,113.535,113.535,140.719,80,140.719z"/>
		<path fill="#674C3D" d="M80,19.281c-33.526,0-60.719,27.193-60.719,60.719c0,33.535,27.193,60.719,60.719,60.719
			c33.535,0,60.719-27.184,60.719-60.719C140.719,46.474,113.535,19.281,80,19.281z M80,137.578
			c-31.794,0-57.578-25.78-57.578-57.578c0-31.794,25.784-57.578,57.578-57.578c31.798,0,57.578,25.784,57.578,57.578
			C137.578,111.798,111.798,137.578,80,137.578z"/>
	</g>
	<path fill="#F7DA7E" d="M80,16c-35.34,0-64,28.66-64,64c0,35.344,28.66,64,64,64c35.344,0,64-28.656,64-64
		C144,44.66,115.344,16,80,16z"/>
	<path fill="#674C3D" d="M101.039,93.3l-0.991,2.946c-0.867,2.428-3.186,4.168-5.915,4.168h-6.281c-1.736,0-3.141-1.408-3.141-3.141
		v-8.902c-1.994,0.871-4.097,1.549-6.281,1.99v6.912c0,1.732-1.404,3.141-3.141,3.141v3.141h25.125l3.141-9.422l-0.017-0.017
		L101.039,93.3z"/>
	<path fill="#674C3D" d="M78.43,72.148h-3.141v3.141c1.736,0,3.141,1.404,3.141,3.141v0.01v2.576v0.012
		c0,0.014-0.003,0.027-0.003,0.042c-0.011,0.799-0.316,1.521-0.811,2.065c-0.008,0.006-0.013,0.01-0.018,0.016
		c-0.093,0.104-0.196,0.2-0.302,0.292c-0.036,0.027-0.074,0.049-0.111,0.078c-0.081,0.063-0.164,0.126-0.251,0.181
		c-0.127,0.078-0.26,0.147-0.398,0.207c-0.031,0.012-0.064,0.022-0.096,0.034c-1.342,0.489-2.783,0.769-4.292,0.769
		c-2.567,0-4.863-1.16-6.401-2.98c-0.577-0.822-1.073-1.703-1.497-2.626c-0.971-2.119-1.524-4.47-1.524-6.956
		s0.554-4.836,1.524-6.956c0.424-0.923,0.92-1.804,1.497-2.626c1.538-1.821,3.833-2.981,6.401-2.981
		c4.647,0,8.695,2.531,10.867,6.281h1.695v-6.454c-3.785-1.89-8.042-2.968-12.561-2.968h-0.001c-8.675,0-15.704,7.029-15.704,15.703
		c0,8.675,7.029,15.704,15.704,15.704h0.001c4.518,0,8.775-1.078,12.561-2.968V78.43c0-1.736,1.404-3.141,3.141-3.141v-3.141h-3.141
		H78.43z"/>
	<circle fill="#674C3D" cx="126.063" cy="80" r="3.141"/>
	<circle fill="#674C3D" cx="33.938" cy="80" r="3.141"/>
	<g>
		<path fill="#674C3D" d="M51.409,121.544l-1.577-1.278l0.314-5.244l-2.69,3.32l-1.389-1.125l5.308-6.552l1.388,1.126l-2.57,3.173
			l4.918-1.271l1.479,1.198l-4.937,1.211L51.409,121.544z"/>
		<path fill="#674C3D" d="M62.052,122.597c-0.652,1.233-1.459,2.02-2.421,2.36c-0.962,0.339-2.015,0.207-3.157-0.396
			c-1.142-0.604-1.844-1.399-2.105-2.384c-0.262-0.987-0.065-2.1,0.591-3.342c0.655-1.24,1.463-2.025,2.422-2.355
			c0.959-0.331,2.012-0.193,3.157,0.412c1.146,0.604,1.848,1.397,2.106,2.377C62.902,120.251,62.705,121.358,62.052,122.597z
			 M56.611,119.722c-0.44,0.833-0.614,1.543-0.521,2.131c0.094,0.589,0.455,1.049,1.083,1.381c1.261,0.667,2.334,0.162,3.22-1.514
			c0.887-1.68,0.704-2.85-0.551-3.513c-0.629-0.333-1.215-0.372-1.757-0.117C57.542,118.345,57.05,118.889,56.611,119.722z"/>
		<path fill="#674C3D" d="M66.399,128.418l-0.286-6.912l-0.05-0.014c-0.271,1.32-0.463,2.197-0.577,2.633l-0.994,3.793l-1.545-0.405
			l2.137-8.155l2.354,0.616l0.295,6.743l0.034,0.008l3.682-5.699l2.354,0.617l-2.138,8.155l-1.612-0.423l1.012-3.86
			c0.048-0.183,0.106-0.392,0.174-0.628c0.068-0.237,0.259-0.863,0.572-1.876l-0.05-0.014l-3.777,5.836L66.399,128.418z"/>
		<path fill="#674C3D" d="M81.77,130.372l-1.781-0.056l0.216-6.94l-3.101-0.097l-0.216,6.941l-1.787-0.056l0.263-8.427l6.669,0.207
			L81.77,130.372z"/>
		<path fill="#674C3D" d="M91.692,129.019l-1.757,0.3l-1.168-6.845l-2.035,0.346l0.038,0.778c0.096,1.978,0.12,3.372,0.074,4.186
			c-0.047,0.813-0.215,1.409-0.506,1.786c-0.291,0.377-0.729,0.612-1.318,0.705c-0.318,0.054-0.606,0.06-0.863,0.019l-0.246-1.444
			c0.232,0.039,0.446,0.041,0.639,0.007c0.201-0.034,0.344-0.153,0.43-0.357c0.086-0.204,0.139-0.564,0.158-1.08
			c0.019-0.516,0.018-1.356-0.003-2.521c-0.021-1.165-0.058-2.263-0.109-3.295l5.247-0.897L91.692,129.019z"/>
		<path fill="#674C3D" d="M99.365,126.48l-4.574,1.629l-2.828-7.943l4.575-1.628l0.491,1.38l-2.89,1.03l0.621,1.743l2.688-0.957
			l0.492,1.38l-2.689,0.958l0.729,2.048l2.89-1.03L99.365,126.48z"/>
		<path fill="#674C3D" d="M107.957,121.997l-1.774,0.986l-4.749-2.247l2.078,3.734l-1.562,0.869l-4.101-7.368l1.562-0.869
			l1.986,3.568l0.655-5.038l1.663-0.924l-0.718,5.031L107.957,121.997z"/>
		<path fill="#674C3D" d="M108.002,112.942c-0.521,0.425-0.765,0.951-0.73,1.576c0.034,0.625,0.336,1.287,0.909,1.987
			c1.189,1.457,2.33,1.738,3.423,0.846c0.458-0.375,0.92-0.943,1.385-1.704l0.948,1.16c-0.353,0.662-0.86,1.262-1.521,1.803
			c-0.95,0.775-1.912,1.08-2.886,0.915c-0.974-0.165-1.9-0.787-2.781-1.865c-0.555-0.678-0.917-1.375-1.086-2.086
			c-0.171-0.712-0.136-1.394,0.105-2.045c0.24-0.651,0.672-1.23,1.294-1.738c0.634-0.519,1.396-0.886,2.288-1.103l0.473,1.49
			c-0.339,0.083-0.667,0.183-0.985,0.298C108.519,112.593,108.241,112.749,108.002,112.942z"/>
	</g>
	<g>
		<path fill="#674C3D" d="M55.121,40.064l0.604-0.36c0.945-0.561,1.79-0.804,2.533-0.727s1.323,0.466,1.74,1.167
			c0.897,1.51,0.348,2.859-1.648,4.045l-2.112,1.255l-4.307-7.249l4.581-2.722l0.754,1.269l-3.043,1.809L55.121,40.064z
			 M57.026,43.272l0.517-0.307c0.519-0.308,0.849-0.618,0.991-0.928c0.143-0.31,0.113-0.634-0.087-0.971
			c-0.198-0.333-0.463-0.501-0.795-0.504c-0.332,0-0.796,0.175-1.39,0.529l-0.392,0.232L57.026,43.272z"/>
		<path fill="#674C3D" d="M67.293,40.095l-1.275-1.666l-2.879,1.075l0.13,2.095l-1.804,0.674l-0.176-8.971l2.047-0.766l5.763,6.884
			L67.293,40.095z M65.093,37.174c-1.166-1.506-1.824-2.358-1.974-2.556c-0.15-0.199-0.264-0.357-0.341-0.476
			c0.053,0.504,0.139,1.772,0.257,3.8L65.093,37.174z"/>
		<path fill="#674C3D" d="M76.524,38.171l-1.758,0.294l-0.601-3.589l-3.294,0.552l0.601,3.588l-1.763,0.296l-1.393-8.316
			l1.764-0.295l0.545,3.259l3.293-0.551l-0.546-3.259l1.757-0.294L76.524,38.171z"/>
		<path fill="#674C3D" d="M85.064,38.337l-1.78-0.069l0.143-3.637L80.091,34.5l-0.144,3.636l-1.786-0.07l0.331-8.425l1.787,0.07
			l-0.129,3.302l3.336,0.132l0.13-3.302l1.78,0.069L85.064,38.337z"/>
		<path fill="#674C3D" d="M92.883,37.432c-0.227,0.847-0.679,1.408-1.355,1.682c-0.677,0.275-1.566,0.263-2.669-0.033l-2.229-0.598
			l2.186-8.143l1.727,0.463l-0.838,3.125l0.557,0.149c1.043,0.28,1.794,0.714,2.252,1.3C92.971,35.964,93.093,36.648,92.883,37.432z
			 M88.736,37.532l0.452,0.121c0.568,0.153,1.009,0.17,1.323,0.054c0.313-0.117,0.522-0.365,0.624-0.744
			c0.101-0.379,0.046-0.684-0.164-0.916s-0.635-0.433-1.273-0.604l-0.373-0.101L88.736,37.532z M94.913,40.706l-1.722-0.462
			l2.186-8.143l1.722,0.461L94.913,40.706z"/>
		<path fill="#674C3D" d="M100.303,33.89l1.42,0.758l-1.918,3.591l-0.534,0.95l-0.635,1.067l0.03,0.017l6.449-3.813l1.888,1.008
			l-3.972,7.438l-1.404-0.75l1.907-3.572c0.255-0.478,0.665-1.169,1.228-2.077l-0.041-0.021l-6.492,3.855l-1.897-1.014
			L100.303,33.89z M107.408,34.579c-0.403,0.6-0.89,0.934-1.458,1.002c-0.568,0.07-1.243-0.104-2.022-0.52
			c-0.804-0.43-1.324-0.887-1.561-1.37c-0.236-0.484-0.202-1.067,0.102-1.751l1.389,0.742c-0.163,0.362-0.207,0.653-0.131,0.875
			c0.075,0.221,0.309,0.436,0.698,0.644c0.343,0.183,0.639,0.242,0.89,0.178c0.251-0.065,0.48-0.249,0.689-0.551L107.408,34.579z"/>
	</g>
	<g opacity="0.75">
		<path fill="#FBFFE2" d="M240,48c0,17.675,14.325,32,32,32s32-14.325,32-32c0-17.676-14.325-32-32-32S240,30.324,240,48z M244,48
			c0-15.465,12.536-28,28-28s28,12.535,28,28c0,15.464-12.536,28-28,28S244,63.464,244,48z"/>
		<path fill="#FBFFE2" d="M274.076,35.096c0.781-0.781,2.047-0.781,2.828,0c0.781,0.78,0.781,2.047,0,2.828l-10.069,10.069
			l10.056,10.07c0.781,0.78,0.781,2.047,0,2.828s-2.047,0.781-2.828,0l-11.477-11.478c-0.781-0.781-0.781-2.047,0-2.828
			L274.076,35.096z"/>
	</g>
	<path opacity="0.75" fill="#FBFFE2" d="M240,128c0,17.675,14.325,32,32,32c17.676,0,32-14.325,32-32c0-17.676-14.324-32-32-32
		C254.325,96,240,110.324,240,128z M262.586,126.586l11.49-11.49c0.781-0.781,2.047-0.781,2.828,0c0.781,0.78,0.781,2.047,0,2.828
		l-10.069,10.069l10.056,10.07c0.781,0.78,0.781,2.047,0,2.828s-2.047,0.781-2.828,0l-11.477-11.478
		C261.805,128.633,261.805,127.367,262.586,126.586z"/>
	<g opacity="0.75">
		<path fill="#FBFFE2" d="M352,16c-17.676,0-32,14.325-32,32c0,17.675,14.324,32,32,32c17.675,0,32-14.325,32-32
			C384,30.325,369.675,16,352,16z M352,76c-15.465,0-28-12.536-28-28c0-15.464,12.535-28,28-28c15.464,0,28,12.536,28,28
			C380,63.464,367.464,76,352,76z"/>
		<path fill="#FBFFE2" d="M349.924,35.095c-0.781-0.781-2.047-0.781-2.828,0c-0.781,0.781-0.781,2.047,0,2.828l10.069,10.07
			l-10.056,10.07c-0.781,0.78-0.781,2.047,0,2.828s2.047,0.781,2.828,0l11.477-11.478c0.781-0.781,0.781-2.047,0-2.828
			L349.924,35.095z"/>
	</g>
	<path opacity="0.75" fill="#FBFFE2" d="M352,96c-17.676,0-32,14.325-32,32c0,17.675,14.324,32,32,32c17.675,0,32-14.325,32-32
		C384,110.325,369.675,96,352,96z M361.414,129.414l-11.477,11.478c-0.781,0.781-2.047,0.781-2.828,0s-0.781-2.048,0-2.828
		l10.056-10.07l-10.069-10.07c-0.781-0.781-0.781-2.047,0-2.828c0.781-0.781,2.047-0.781,2.828,0l11.49,11.491
		C362.195,127.366,362.195,128.634,361.414,129.414z"/>
	<g>
		<path fill="#6FA491" d="M400,48c0,17.675,14.325,32,32,32s32-14.325,32-32c0-17.676-14.325-32-32-32S400,30.324,400,48z M404,48
			c0-15.465,12.536-28,28-28s28,12.535,28,28c0,15.464-12.536,28-28,28S404,63.464,404,48z"/>
		<path fill="#6FA491" d="M434.076,35.096c0.781-0.781,2.047-0.781,2.828,0c0.781,0.78,0.781,2.047,0,2.828l-10.069,10.069
			l10.056,10.07c0.781,0.78,0.781,2.047,0,2.828s-2.047,0.781-2.828,0l-11.477-11.478c-0.781-0.781-0.781-2.047,0-2.828
			L434.076,35.096z"/>
	</g>
	<path fill="#6FA491" d="M400,128c0,17.675,14.325,32,32,32c17.676,0,32-14.325,32-32c0-17.676-14.324-32-32-32
		C414.325,96,400,110.324,400,128z M422.586,126.586l11.49-11.49c0.781-0.781,2.047-0.781,2.828,0c0.781,0.78,0.781,2.047,0,2.828
		l-10.069,10.069l10.056,10.07c0.781,0.78,0.781,2.047,0,2.828s-2.047,0.781-2.828,0l-11.477-11.478
		C421.805,128.633,421.805,127.367,422.586,126.586z"/>
	<g>
		<path fill="#6FA491" d="M512,16c-17.676,0-32,14.325-32,32c0,17.675,14.324,32,32,32c17.675,0,32-14.325,32-32
			C544,30.325,529.675,16,512,16z M512,76c-15.465,0-28-12.536-28-28c0-15.464,12.535-28,28-28c15.464,0,28,12.536,28,28
			C540,63.464,527.464,76,512,76z"/>
		<path fill="#6FA491" d="M509.924,35.095c-0.781-0.781-2.047-0.781-2.828,0c-0.781,0.781-0.781,2.047,0,2.828l10.069,10.07
			l-10.056,10.07c-0.781,0.78-0.781,2.047,0,2.828s2.047,0.781,2.828,0l11.477-11.478c0.781-0.781,0.781-2.047,0-2.828
			L509.924,35.095z"/>
	</g>
	<path fill="#6FA491" d="M512,96c-17.676,0-32,14.325-32,32c0,17.675,14.324,32,32,32c17.675,0,32-14.325,32-32
		C544,110.325,529.675,96,512,96z M521.414,129.414l-11.477,11.478c-0.781,0.781-2.047,0.781-2.828,0s-0.781-2.048,0-2.828
		l10.056-10.07l-10.069-10.07c-0.781-0.781-0.781-2.047,0-2.828c0.781-0.781,2.047-0.781,2.828,0l11.49,11.491
		C522.195,127.366,522.195,128.634,521.414,129.414z"/>
	<path opacity="0.75" fill="#FBFFE2" d="M568,16c-4.419,0-8,3.582-8,8s3.581,8,8,8s8-3.582,8-8S572.419,16,568,16z M568,30
		c-3.313,0-6-2.687-6-6s2.687-6,6-6s6,2.687,6,6S571.313,30,568,30z"/>
	<circle opacity="0.75" fill="#FBFFE2" cx="568" cy="56" r="8"/>
	<path fill="#6FA491" d="M568,80c-4.419,0-8,3.582-8,8s3.581,8,8,8s8-3.582,8-8S572.419,80,568,80z M568,94c-3.313,0-6-2.687-6-6
		s2.687-6,6-6s6,2.687,6,6S571.313,94,568,94z"/>
	<circle fill="#6FA491" cx="568" cy="120" r="8"/>
	<path opacity="0.75" fill="#FBFFE2" d="M288,256c-8.836,0-16,7.164-16,16c0,8.837,7.164,16,16,16c8.837,0,16-7.163,16-16
		C304,263.164,296.837,256,288,256z M292.95,275.535c0.391,0.392,0.39,1.024,0,1.415c-0.391,0.39-1.023,0.391-1.415,0L288,273.414
		l-3.535,3.536c-0.391,0.39-1.023,0.391-1.414,0c-0.392-0.392-0.391-1.024,0-1.415l3.535-3.535l-3.535-3.535
		c-0.392-0.391-0.391-1.023,0-1.414s1.023-0.392,1.414,0l3.535,3.535l3.535-3.535c0.392-0.392,1.023-0.392,1.415,0
		c0.391,0.391,0.391,1.023,0,1.414L289.414,272L292.95,275.535z"/>
	<g opacity="0.75">
		<path fill="#FBFFE2" d="M240,256c-8.837,0-16,7.163-16,16s7.163,16,16,16s16-7.163,16-16S248.837,256,240,256z M240,286
			c-7.731,0-14-6.269-14-14s6.269-14,14-14s14,6.269,14,14S247.731,286,240,286z"/>
		<path fill="#FBFFE2" d="M244.95,267.051c-0.392-0.392-1.023-0.392-1.415,0L240,270.586l-3.535-3.535
			c-0.391-0.392-1.023-0.391-1.414,0s-0.392,1.023,0,1.414l3.535,3.535l-3.535,3.535c-0.391,0.391-0.392,1.023,0,1.415
			c0.391,0.391,1.023,0.39,1.414,0l3.535-3.536l3.535,3.536c0.392,0.391,1.024,0.39,1.415,0c0.39-0.391,0.391-1.023,0-1.415
			L241.414,272l3.536-3.535C245.341,268.074,245.341,267.441,244.95,267.051z"/>
	</g>
	<path opacity="0.5" fill="#231F20" d="M384,256c-8.836,0-16,7.164-16,16c0,8.837,7.164,16,16,16c8.837,0,16-7.163,16-16
		C400,263.164,392.837,256,384,256z M388.95,275.535c0.391,0.392,0.39,1.024,0,1.415c-0.391,0.39-1.023,0.391-1.415,0L384,273.414
		l-3.535,3.536c-0.391,0.39-1.023,0.391-1.414,0c-0.392-0.392-0.391-1.024,0-1.415l3.535-3.535l-3.535-3.535
		c-0.392-0.391-0.391-1.023,0-1.414s1.023-0.392,1.414,0l3.535,3.535l3.535-3.535c0.392-0.392,1.023-0.392,1.415,0
		c0.391,0.391,0.391,1.023,0,1.414L385.414,272L388.95,275.535z"/>
	<g opacity="0.5">
		<path fill="#231F20" d="M336,256c-8.837,0-16,7.163-16,16s7.163,16,16,16s16-7.163,16-16S344.837,256,336,256z M336,286
			c-7.731,0-14-6.269-14-14s6.269-14,14-14s14,6.269,14,14S343.731,286,336,286z"/>
		<path fill="#231F20" d="M340.95,267.051c-0.392-0.392-1.023-0.392-1.415,0L336,270.586l-3.535-3.535
			c-0.391-0.392-1.023-0.391-1.414,0s-0.392,1.023,0,1.414l3.535,3.535l-3.535,3.535c-0.391,0.391-0.392,1.023,0,1.415
			c0.391,0.391,1.023,0.39,1.414,0l3.535-3.536l3.535,3.536c0.392,0.391,1.024,0.39,1.415,0c0.39-0.391,0.391-1.023,0-1.415
			L337.414,272l3.536-3.535C341.341,268.074,341.341,267.441,340.95,267.051z"/>
	</g>
	<path fill="#E9BDAC" d="M276,176c-6.626,0-12,5.37-12,12c0,6.626,5.374,12,12,12c6.631,0,12-5.374,12-12
		C288,181.37,282.631,176,276,176z M278,196c-2.207,0-4-1.793-4-4c0-0.275,0.028-0.545,0.081-0.805h-0.001l0.667-3.195H274v-2h3.209
		l-0.457,2.197l-0.688,3.324c-0.01,0.041-0.021,0.08-0.028,0.12C276.016,191.758,276,191.877,276,192c0,1.104,0.896,2,2,2V196z
		 M276,184c-1.104,0-2-0.896-2-2s0.896-2,2-2s2,0.896,2,2S277.104,184,276,184z"/>
	<path fill="#E9BDAC" d="M328,179.026c0-1.672-1.354-3.026-3.025-3.026c-0.138,0-0.27,0.023-0.404,0.041v-0.008
		c-0.031,0.004-0.061,0.012-0.092,0.018c-0.063,0.011-0.126,0.021-0.188,0.034c-10.397,1.595-18.595,9.792-20.2,20.189
		c-0.019,0.074-0.03,0.152-0.043,0.23c-0.006,0.041-0.017,0.083-0.022,0.124l0.009,0.01c-0.012,0.111-0.033,0.221-0.033,0.335
		c0,1.673,1.354,3.026,3.025,3.026c0.002,0,0.004,0,0.006,0h0.001h2.931h0.001c0.933-0.004,1.71-0.643,1.938-1.505l0.031-0.023
		l1.024-4.398l-0.006-0.014c0.026-0.132,0.041-0.268,0.041-0.406c0-0.746-0.41-1.39-1.012-1.739l0,0l-1.166-0.662l-0.004-0.021
		c-0.54-0.361-0.896-0.977-0.896-1.676c0-0.408,0.123-0.786,0.331-1.104l-0.002-0.01l0.021-0.022
		c1.554-2.375,3.58-4.401,5.932-5.982c0.099-0.091,0.206-0.17,0.322-0.239l0.021-0.021l0.012,0.002
		c0.296-0.168,0.634-0.272,0.998-0.272c0.741,0,1.384,0.404,1.733,1.002l0.012,0.004l0.627,1.058h0.002
		c0.349,0.604,0.994,1.015,1.74,1.015c0.165,0,0.322-0.025,0.475-0.063l0.021,0.01l4.207-0.978l0.012-0.016
		c0.919-0.188,1.611-1,1.611-1.977c0-0.003-0.001-0.006-0.001-0.01h0.001L328,179.026z"/>
	<path fill="#E9BDAC" d="M360.502,177.209c-4.305-2.488-9.809-1.012-12.303,3.291c-1.732,3.005-1.527,6.595,0.221,9.336h-0.008
		l5.854,9.155h0.01c0.17,0.296,0.41,0.558,0.727,0.741c0.957,0.552,2.18,0.224,2.732-0.732l5.641-8.838
		c0.148-0.215,0.295-0.433,0.43-0.663C366.277,185.194,364.807,179.695,360.502,177.209z M359.467,185.999
		c-1.105,1.913-3.553,2.569-5.465,1.465c-1.912-1.106-2.568-3.553-1.467-5.464c1.107-1.912,3.553-2.568,5.467-1.463
		C359.912,181.643,360.566,184.087,359.467,185.999z"/>
	<path fill="#E9BDAC" d="M285,216h-18c-1.657,0-3,1.344-3,3v12c0,1.656,1.343,3,3,3h3v6l6-6h9c1.657,0,3-1.344,3-3v-12
		C288,217.344,286.657,216,285,216z M276,229h-6v-2h6V229z M282,226h-12v-2h12V226z M282,223h-12v-2h12V223z"/>
	<g>
		<polygon fill="#E9BDAC" points="323.236,227.994 328,232.76 328,223.24 		"/>
		<path fill="#E9BDAC" d="M319.566,231.656c-0.012,0.012-0.02,0.027-0.033,0.039c-1.951,1.953-5.117,1.953-7.07,0
			c-0.021-0.021-0.037-0.049-0.059-0.071l-2.232-2.231l-5.881,5.879c0.48,1.019,1.508,1.729,2.709,1.729h18
			c1.191,0,2.213-0.701,2.695-1.707l-5.881-5.881L319.566,231.656z"/>
		<polygon fill="#E9BDAC" points="304,223.229 304,232.744 308.762,227.986 		"/>
		<path fill="#E9BDAC" d="M313.877,230.283h0.002c1.172,1.17,3.07,1.17,4.24-0.002c0.033-0.031,0.055-0.068,0.084-0.102l2.729-2.721
			l6.768-6.748C327.215,219.702,326.193,219,325,219h-18c-1.193,0-2.215,0.702-2.699,1.711l6.764,6.762L313.877,230.283z"/>
	</g>
	<g>
		<polygon fill="#5D463A" points="683.236,227.994 688,232.76 688,223.24 		"/>
		<path fill="#5D463A" d="M679.566,231.656c-0.012,0.012-0.02,0.027-0.033,0.039c-1.951,1.953-5.117,1.953-7.07,0
			c-0.021-0.021-0.037-0.049-0.059-0.071l-2.232-2.231l-5.881,5.879c0.48,1.019,1.508,1.729,2.709,1.729h18
			c1.191,0,2.213-0.701,2.695-1.707l-5.881-5.881L679.566,231.656z"/>
		<polygon fill="#5D463A" points="664,223.229 664,232.744 668.762,227.986 		"/>
		<path fill="#5D463A" d="M673.877,230.283h0.002c1.172,1.17,3.07,1.17,4.24-0.002c0.033-0.031,0.055-0.068,0.084-0.102l2.729-2.721
			l6.768-6.748C687.215,219.702,686.193,219,685,219h-18c-1.193,0-2.215,0.702-2.699,1.711l6.764,6.762L673.877,230.283z"/>
	</g>
	<path fill="#E9BDAC" d="M366,222c-0.355,0-0.685,0.101-0.974,0.264l-0.008-0.005l-3.344,1.669c0.208-0.604,0.325-1.252,0.325-1.928
		c0-3.313-2.687-6-6-6s-6,2.687-6,6c0,0.252,0.019,0.498,0.05,0.741l-4.823,2.415c-0.01,0.004-0.019,0.009-0.027,0.014l-0.199,0.1
		l-0.007,0.012C344.401,225.629,344,226.265,344,227v11c0,1.104,0.896,2,2,2c0.364,0,0.701-0.105,0.996-0.275l0.007,0.004
		l5.085-2.563l7.112,2.666h0.001c0.244,0.106,0.515,0.168,0.799,0.168c0.413,0,0.797-0.125,1.116-0.34l5.656-2.815
		c0.011-0.005,0.021-0.011,0.03-0.015l0.188-0.094l0.007-0.013c0.597-0.347,1.002-0.985,1.002-1.724v-11
		C368,222.896,367.104,222,366,222z M351,235.5l-5,2.5v-11l4.635-2.317l0.365,0.735V235.5z M356,219c1.656,0,3,1.344,3,3
		c0,0.844-0.352,1.604-0.912,2.148c-0.54,0.525-1.275,0.852-2.088,0.852c-1.57,0-2.846-1.212-2.975-2.749
		C353.019,222.166,353,222.086,353,222C353,220.344,354.344,219,356,219z M360,238l-1-0.375l-6-2.25L352,235v-7.568l1,2.012l0,0
		l1.153,2.321c0.006,0.016,0.015,0.03,0.022,0.044l0.097,0.197h0.008c0.348,0.592,0.983,0.994,1.72,0.994
		c0.732,0,1.367-0.398,1.715-0.986h0.009l2.276-4.601V238z M366,235l-5,2.5v-11l5-2.5V235z"/>
	<path fill="#5D463A" d="M406,182c-0.355,0-0.685,0.101-0.974,0.264l-0.008-0.005l-3.344,1.669c0.208-0.604,0.325-1.252,0.325-1.928
		c0-3.313-2.687-6-6-6s-6,2.687-6,6c0,0.252,0.019,0.498,0.05,0.741l-4.823,2.415c-0.01,0.004-0.019,0.009-0.027,0.014l-0.199,0.1
		l-0.007,0.012C384.401,185.629,384,186.265,384,187v11c0,1.104,0.896,2,2,2c0.364,0,0.701-0.105,0.996-0.275l0.007,0.004
		l5.085-2.563l7.112,2.666h0.001c0.244,0.106,0.515,0.168,0.799,0.168c0.413,0,0.797-0.125,1.116-0.34l5.656-2.815
		c0.011-0.005,0.021-0.011,0.03-0.015l0.188-0.094l0.007-0.013c0.597-0.347,1.002-0.985,1.002-1.724v-11
		C408,182.896,407.104,182,406,182z M391,195.5l-5,2.5v-11l4.635-2.317l0.365,0.735V195.5z M396,179c1.656,0,3,1.344,3,3
		c0,0.844-0.352,1.604-0.912,2.148c-0.54,0.525-1.275,0.852-2.088,0.852c-1.57,0-2.846-1.212-2.975-2.749
		C393.019,182.166,393,182.086,393,182C393,180.344,394.344,179,396,179z M400,198l-1-0.375l-6-2.25L392,195v-7.568l1,2.012l0,0
		l1.153,2.321c0.006,0.016,0.015,0.03,0.022,0.044l0.097,0.197h0.008c0.348,0.592,0.983,0.994,1.72,0.994
		c0.732,0,1.367-0.398,1.715-0.986h0.009l2.276-4.601V198z M406,195l-5,2.5v-11l5-2.5V195z"/>
	<g>
		<path fill="#6FA491" d="M247,180h-3v-3c0-0.553-0.447-1-1-1h-16c-1.658,0-3,1.342-3,3c0,0.115,0.021,0.225,0.034,0.337
			L224,179.375V197c0,1.658,1.342,3,3,3h20c0.553,0,1-0.447,1-1v-18C248,180.447,247.553,180,247,180z M227,178h13.184
			c0.412,1.163,1.511,2,2.816,2h-16c-0.553,0-1-0.447-1-1S226.447,178,227,178z M246,196.184c-0.849,0.301-1.516,0.968-1.816,1.816
			H227c-0.553,0-1-0.447-1-1v-2.184c0.314,0.111,0.647,0.184,1,0.184c0.207,0,0.404-0.036,0.604-0.061
			c2.472-0.303,4.396-2.387,4.396-4.939c0-2.547-1.726-4.628-4.19-4.938l0.19-0.023v-0.002c-1-0.178-2-0.987-2-1.962v-1.259
			c0.314,0.111,0.647,0.184,1,0.184h17.184c0.301,0.85,0.968,1.516,1.816,1.816V196.184z"/>
		<path fill="#6FA491" d="M243.022,184h-12.43c2.039,1.223,3.407,3.448,3.407,6s-1.368,4.776-3.407,6h12.43
			c0.279-0.37,0.607-0.698,0.978-0.978v-10.045C243.63,184.697,243.302,184.37,243.022,184z M240,192h-2c-1.105,0-2-0.895-2-2
			s0.895-2,2-2h2c1.105,0,2,0.895,2,2S241.105,192,240,192z"/>
	</g>
	<g>
		<path fill="#6FA491" d="M245.001,225.001L245.001,225.001c-0.473-0.366-0.782-0.933-0.782-1.575c0-0.187,0.034-0.363,0.081-0.535
			l-0.005-0.016l0.063-0.166c0.011-0.028,0.02-0.057,0.031-0.084l0.606-1.625c-4.42,0-8,3.584-8,8c0,2.761,2.238,5,5,5s5-2.239,5-5
			C246.995,227.367,246.213,225.914,245.001,225.001z"/>
		<path fill="#6FA491" d="M232.993,225.018L232.993,225.018c-0.473-0.366-0.77-0.949-0.77-1.592c0-0.187,0.034-0.363,0.081-0.535
			l-0.005-0.016l0.063-0.166c0.011-0.028,0.02-0.057,0.031-0.084L233,221c-4.42,0-8,3.584-8,8c0,2.761,2.238,5,5,5s5-2.239,5-5
			C235,227.367,234.205,225.93,232.993,225.018z"/>
	</g>
	<path fill="#F7DA7E" d="M206,182c0,0.552-0.447,1-1,1h-1c-0.553,0-1-0.448-1-1h-22c0,0.553-0.447,1-1,1h-1c-0.552,0-1-0.447-1-1
		c-1.104,0-2,0.896-2,2v8h2v-1c0-0.553,0.448-1,1-1h1c0.553,0,1,0.447,1,1v1c0,0.036-0.017,0.066-0.021,0.102
		c1.011,0.202,1.911,0.707,2.603,1.42l2.456,2.479h1.967l0.001-7.186c0-0.553,0.447-1,1-1c0.177,0,0.334,0.058,0.479,0.139
		l0.011-0.006l9.003,5.189v0.016c0.295,0.174,0.502,0.48,0.502,0.848s-0.207,0.674-0.502,0.848v0.016l-5.145,2.969
		c0.405,0.625,0.646,1.367,0.646,2.168v6h9c0-0.553,0.447-1,1-1h1c0.553,0,1,0.447,1,1c1.104,0,2-0.896,2-2v-20
		C208,182.896,207.104,182,206,182z M181,187c0,0.553-0.447,1-1,1h-1c-0.552,0-1-0.447-1-1v-1c0-0.553,0.448-1,1-1h1
		c0.553,0,1,0.447,1,1V187z M206,202c0,0.552-0.447,1-1,1h-1c-0.553,0-1-0.448-1-1v-1c0-0.553,0.447-1,1-1h1c0.553,0,1,0.447,1,1
		V202z M206,197c0,0.552-0.447,1-1,1h-1c-0.553,0-1-0.448-1-1v-1c0-0.553,0.447-1,1-1h1c0.553,0,1,0.447,1,1V197z M206,192
		c0,0.552-0.447,1-1,1h-1c-0.553,0-1-0.448-1-1v-1c0-0.553,0.447-1,1-1h1c0.553,0,1,0.447,1,1V192z M206,187c0,0.552-0.447,1-1,1h-1
		c-0.553,0-1-0.448-1-1v-1c0-0.553,0.447-1,1-1h1c0.553,0,1,0.447,1,1V187z"/>
	<g>
		<path fill="#F7DA7E" d="M162,196h4c0.552,0,1-0.447,1-1s-0.448-1-1-1h-4c-0.552,0-1,0.447-1,1S161.448,196,162,196z"/>
		<circle fill="#F7DA7E" cx="176" cy="207" r="5"/>
		<path fill="#F7DA7E" d="M190,198h-4.793l-3.053-3.082C181.608,194.354,180.847,194,180,194h-8c-0.824,0-1.57,0.333-2.112,0.871
			l-0.012,0.005L166.77,198H162c-1.104,0-2,0.896-2,2v16c0,1.104,0.896,2,2,2h28c1.104,0,2-0.896,2-2v-16
			C192,198.896,191.104,198,190,198z M176,214c-3.867,0-7-3.133-7-7c0-3.656,2.805-6.654,6.381-6.969h1.238
			c3.576,0.314,6.381,3.313,6.381,6.969C183,210.867,179.867,214,176,214z M190,203c0,0.553-0.447,1-1,1h-3c-0.553,0-1-0.447-1-1v-2
			c0-0.553,0.447-1,1-1h3c0.553,0,1,0.447,1,1V203z"/>
	</g>
	<path fill="#625C5A" d="M206,246c0,0.552-0.447,1-1,1h-1c-0.553,0-1-0.448-1-1h-22c0,0.553-0.447,1-1,1h-1c-0.552,0-1-0.447-1-1
		c-1.104,0-2,0.896-2,2v8h2v-1c0-0.553,0.448-1,1-1h1c0.553,0,1,0.447,1,1v1c0,0.036-0.017,0.066-0.021,0.102
		c1.011,0.202,1.911,0.707,2.603,1.42l2.456,2.479h1.967l0.001-7.186c0-0.553,0.447-1,1-1c0.177,0,0.334,0.058,0.479,0.139
		l0.011-0.006l9.003,5.189v0.016c0.295,0.174,0.502,0.48,0.502,0.848s-0.207,0.674-0.502,0.848v0.016l-5.145,2.969
		c0.405,0.625,0.646,1.367,0.646,2.168v6h9c0-0.553,0.447-1,1-1h1c0.553,0,1,0.447,1,1c1.104,0,2-0.896,2-2v-20
		C208,246.896,207.104,246,206,246z M181,251c0,0.553-0.447,1-1,1h-1c-0.552,0-1-0.447-1-1v-1c0-0.553,0.448-1,1-1h1
		c0.553,0,1,0.447,1,1V251z M206,266c0,0.552-0.447,1-1,1h-1c-0.553,0-1-0.448-1-1v-1c0-0.553,0.447-1,1-1h1c0.553,0,1,0.447,1,1
		V266z M206,261c0,0.552-0.447,1-1,1h-1c-0.553,0-1-0.448-1-1v-1c0-0.553,0.447-1,1-1h1c0.553,0,1,0.447,1,1V261z M206,256
		c0,0.552-0.447,1-1,1h-1c-0.553,0-1-0.448-1-1v-1c0-0.553,0.447-1,1-1h1c0.553,0,1,0.447,1,1V256z M206,251c0,0.552-0.447,1-1,1h-1
		c-0.553,0-1-0.448-1-1v-1c0-0.553,0.447-1,1-1h1c0.553,0,1,0.447,1,1V251z"/>
	<g>
		<path fill="#625C5A" d="M162,260h4c0.552,0,1-0.447,1-1s-0.448-1-1-1h-4c-0.552,0-1,0.447-1,1S161.448,260,162,260z"/>
		<circle fill="#625C5A" cx="176" cy="271" r="5"/>
		<path fill="#625C5A" d="M190,262h-4.793l-3.053-3.082C181.608,258.354,180.847,258,180,258h-8c-0.824,0-1.57,0.333-2.112,0.871
			l-0.012,0.005L166.77,262H162c-1.104,0-2,0.896-2,2v16c0,1.104,0.896,2,2,2h28c1.104,0,2-0.896,2-2v-16
			C192,262.896,191.104,262,190,262z M176,278c-3.867,0-7-3.133-7-7c0-3.656,2.805-6.654,6.381-6.969h1.238
			c3.576,0.314,6.381,3.313,6.381,6.969C183,274.867,179.867,278,176,278z M190,267c0,0.553-0.447,1-1,1h-3c-0.553,0-1-0.447-1-1v-2
			c0-0.553,0.447-1,1-1h3c0.553,0,1,0.447,1,1V267z"/>
	</g>
	<path fill="#3B876F" d="M448,188c0-0.779-0.451-1.449-1.103-1.778v-0.005l-0.101-0.05c-0.008-0.003-0.015-0.008-0.021-0.011
		l-19.878-9.939l-0.004,0.003c-0.27-0.136-0.57-0.22-0.894-0.22c-1.104,0-2,0.896-2,2c0,0.192,0.036,0.375,0.087,0.551l-0.003,0.002
		l0.015,0.035c0.032,0.107,0.073,0.21,0.123,0.309l2.562,6.414L440,188l-13.216,2.69l-2.563,6.412
		c-0.05,0.099-0.091,0.202-0.124,0.31l-0.014,0.035l0.003,0.002C424.036,197.625,424,197.808,424,198c0,1.104,0.896,2,2,2
		c0.279,0,0.544-0.058,0.785-0.16l19.954-9.984C447.478,189.561,448,188.843,448,188z"/>
	<path fill="#E8E5E2" d="M408,228c0-0.779-0.451-1.449-1.103-1.778v-0.005l-0.101-0.05c-0.008-0.003-0.015-0.008-0.021-0.011
		l-19.878-9.939l-0.004,0.003c-0.27-0.136-0.57-0.22-0.894-0.22c-1.104,0-2,0.896-2,2c0,0.192,0.036,0.375,0.087,0.551l-0.003,0.002
		l0.015,0.035c0.032,0.107,0.073,0.21,0.123,0.309l2.562,6.414L400,228l-13.216,2.69l-2.563,6.412
		c-0.05,0.099-0.091,0.202-0.124,0.31l-0.014,0.035l0.003,0.002C384.036,237.625,384,237.808,384,238c0,1.104,0.896,2,2,2
		c0.279,0,0.544-0.058,0.785-0.16l19.954-9.984C407.478,229.561,408,228.843,408,228z"/>
	<path fill="#F8F8F9" d="M448,228c0-0.779-0.451-1.449-1.103-1.778v-0.005l-0.101-0.05c-0.008-0.003-0.015-0.008-0.021-0.011
		l-19.878-9.939l-0.004,0.003c-0.27-0.136-0.57-0.22-0.894-0.22c-1.104,0-2,0.896-2,2c0,0.192,0.036,0.375,0.087,0.551l-0.003,0.002
		l0.015,0.035c0.032,0.107,0.073,0.21,0.123,0.309l2.562,6.414L440,228l-13.216,2.69l-2.563,6.412
		c-0.05,0.099-0.091,0.202-0.124,0.31l-0.014,0.035l0.003,0.002C424.036,237.625,424,237.808,424,238c0,1.104,0.896,2,2,2
		c0.279,0,0.544-0.058,0.785-0.16l19.954-9.984C447.478,229.561,448,228.843,448,228z"/>
	<path fill="#3B876F" d="M527.463,183.355c0.33-0.357,0.537-0.831,0.537-1.355c0-1.104-0.896-2-2-2c-0.556,0-1.058,0.227-1.42,0.594
		l-0.008-0.008l-11.578,11.58l-5.573-5.587l-0.007,0.007C507.053,186.224,506.553,186,506,186c-1.104,0-2,0.896-2,2
		c0,0.553,0.224,1.053,0.586,1.414l-0.006,0.006l6.986,6.971C511.93,196.766,512.438,197,513,197c0.553,0,1.052-0.224,1.414-0.586
		l0,0l12.982-12.984c0.011-0.012,0.021-0.022,0.033-0.033l0.037-0.038L527.463,183.355z"/>
	<g>
		<circle fill="#8F8684" cx="467" cy="188" r="3"/>
		<circle fill="#8F8684" cx="485" cy="188" r="3"/>
		<circle fill="#8F8684" cx="476" cy="188" r="3"/>
	</g>
	<circle fill="#3B876F" cx="573" cy="277" r="3"/>
	<path fill="#8D2B2E" d="M478.844,228l5.566-5.566c0.786-0.785,0.786-2.059,0-2.844c-0.785-0.786-2.059-0.786-2.844,0L476,225.156
		l-5.566-5.566c-0.785-0.786-2.059-0.786-2.844,0c-0.786,0.785-0.786,2.059,0,2.844l5.566,5.566l-5.566,5.566
		c-0.786,0.785-0.786,2.059,0,2.844c0.785,0.786,2.059,0.786,2.844,0l5.566-5.566l5.566,5.566c0.785,0.786,2.059,0.786,2.844,0
		c0.786-0.785,0.786-2.059,0-2.844L478.844,228z"/>
	<path fill="#625C5A" d="M576,149c0-1.104-0.896-2-2-2c-0.553,0-1.053,0.225-1.414,0.586h-0.001l-4.579,4.594l-4.59-4.592
		C563.053,147.225,562.553,147,562,147c-1.104,0-2,0.896-2,2c0,0.557,0.229,1.06,0.596,1.422l-0.002,0.001l5.971,5.965
		c0.016,0.017,0.031,0.032,0.048,0.048l0.05,0.051h0.012c0.354,0.315,0.814,0.514,1.326,0.514c0.523,0,0.996-0.206,1.353-0.535
		h0.009l0.041-0.04c0.007-0.008,0.015-0.016,0.021-0.023l5.99-5.987l0,0C575.776,150.053,576,149.553,576,149z"/>
	<path fill="#625C5A" d="M576,187c0,1.104-0.896,2-2,2c-0.553,0-1.053-0.225-1.414-0.586h-0.001l-4.579-4.594l-4.59,4.592
		C563.053,188.775,562.553,189,562,189c-1.104,0-2-0.896-2-2c0-0.557,0.229-1.06,0.596-1.422l-0.002-0.001l5.971-5.965
		c0.016-0.017,0.031-0.032,0.048-0.048l0.05-0.051h0.012c0.354-0.315,0.814-0.514,1.326-0.514c0.523,0,0.996,0.206,1.353,0.535
		h0.009l0.041,0.04c0.007,0.008,0.015,0.016,0.021,0.023l5.99,5.987l0,0C575.776,185.947,576,186.447,576,187z"/>
	<path fill="#5D463A" d="M556,216c1.104,0,2,0.896,2,2c0,0.553-0.225,1.053-0.586,1.414v0.001l-8.594,8.579l8.592,8.59
		c0.363,0.363,0.588,0.863,0.588,1.416c0,1.104-0.896,2-2,2c-0.557,0-1.06-0.229-1.422-0.596l-0.001,0.002l-9.965-9.971
		c-0.017-0.016-0.032-0.031-0.048-0.048l-0.051-0.05v-0.012C544.198,228.973,544,228.512,544,228c0-0.523,0.206-0.996,0.535-1.353
		v-0.009l0.04-0.041c0.008-0.007,0.016-0.015,0.023-0.021l9.987-9.99l0,0C554.947,216.224,555.447,216,556,216z"/>
	<path fill="#5D463A" d="M568,228c0,1.104-0.896,2-2,2h-18c-1.104,0-2-0.896-2-2l0,0c0-1.104,0.896-2,2-2h18
		C567.104,226,568,226.896,568,228L568,228z"/>
	<g>
		<path fill="#5D463A" d="M526,226h-20c-1.104,0-2,0.896-2,2s0.896,2,2,2h20c1.104,0,2-0.896,2-2S527.104,226,526,226z"/>
		<path fill="#5D463A" d="M506,222h20c1.104,0,2-0.896,2-2s-0.896-2-2-2h-20c-1.104,0-2,0.896-2,2S504.896,222,506,222z"/>
		<path fill="#5D463A" d="M526,234h-20c-1.104,0-2,0.896-2,2s0.896,2,2,2h20c1.104,0,2-0.896,2-2S527.104,234,526,234z"/>
	</g>
	<g>
		<path fill-rule="evenodd" clip-rule="evenodd" fill="#5D463A" d="M435.855,266.738c0.007-0.001,1.562-0.113,1.556-1.617
			c-0.002-0.53,0.091-1.734-1.727-1.788c-0.817-0.024-1.167,0-1.167,0v3.5C434.518,266.833,435.27,266.769,435.855,266.738z"/>
		<path fill-rule="evenodd" clip-rule="evenodd" fill="#5D463A" d="M436.268,269.166c-0.688-0.018-1.75,0-1.75,0v3.5
			c0,0,1.531-0.002,1.75,0c1.4,0.013,1.75-1.182,1.75-1.75C438.018,269.066,436.092,269.162,436.268,269.166z"/>
		<path fill-rule="evenodd" clip-rule="evenodd" fill="#5D463A" d="M443,256h-14c-2.762,0-5,2.238-5,5v14c0,2.762,2.238,5,5,5h14
			c2.762,0,5-2.238,5-5v-14C448,258.238,445.762,256,443,256z M436.272,275c0,0-2.563,0-4.112,0c-0.463,0-1.16-0.5-1.16-1.154
			c0-2.703,0-8.852,0-11.624c0-1.158,0.852-1.224,1.156-1.224c1.549,0,5.492,0.067,5.866,0.123
			c-0.007-0.002,2.912,0.396,2.912,3.379c0,1.423-0.476,2.254-1.807,3.09l0,0c1,0,2.31,1.568,2.39,3.326
			C441.719,275.329,435.174,275,436.272,275z"/>
	</g>
	<g>
		<path fill-rule="evenodd" clip-rule="evenodd" fill="#356CA2" d="M475.855,266.738c0.007-0.001,1.562-0.113,1.556-1.617
			c-0.002-0.53,0.091-1.734-1.727-1.788c-0.817-0.024-1.167,0-1.167,0v3.5C474.518,266.833,475.27,266.769,475.855,266.738z"/>
		<path fill-rule="evenodd" clip-rule="evenodd" fill="#356CA2" d="M476.268,269.166c-0.688-0.018-1.75,0-1.75,0v3.5
			c0,0,1.531-0.002,1.75,0c1.4,0.013,1.75-1.182,1.75-1.75C478.018,269.066,476.092,269.162,476.268,269.166z"/>
		<path fill-rule="evenodd" clip-rule="evenodd" fill="#356CA2" d="M488,256h-24v24h24V256z M476.272,275c0,0-2.563,0-4.112,0
			c-0.463,0-1.16-0.5-1.16-1.154c0-2.703,0-8.852,0-11.624c0-1.158,0.852-1.224,1.156-1.224c1.549,0,5.492,0.067,5.866,0.123
			c-0.007-0.002,2.912,0.396,2.912,3.379c0,1.423-0.476,2.254-1.807,3.09l0,0c1,0,2.31,1.568,2.39,3.326
			C481.719,275.329,475.174,275,476.272,275z"/>
	</g>
	<path fill="#485E97" d="M504,256v24h24v-24H504z M520.288,268H517v10h-3.009l-0.002-10h-2.981L511,265h3c0,0,0-2.188,0-3.183
		c0-4.643,4.396-3.817,4.396-3.817h2.11l-0.013,3h-2.094c-1.428,0-1.399,0.724-1.399,0.724V265h3.993L520.288,268z"/>
	<path opacity="0.15" fill="#231F20" d="M223.607,140c2.222-6.627-5.204-12-16.586-12c-11.382,0-22.41,5.373-24.629,12
		c-0.784,2.34-0.363,4.52,1.008,6.364h-0.002l0.039,0.046c0.12,0.165,0.249,0.323,0.388,0.479l5.877,12.176h0.014
		c0.421,0.56,1.36,0.934,2.582,0.934c1.243,0,2.452-0.386,3.249-0.966h0.014l21.948-12.112c0.285-0.184,0.56-0.371,0.831-0.561
		l0.015-0.012h0C220.949,144.51,222.824,142.332,223.607,140z M199.324,145c-5.693,0-7.405-2.686-6.293-6
		c1.111-3.314,6.623-6,12.315-6c5.691,0,10.185,3.062,8.292,6C211.625,142.125,205.015,145,199.324,145z"/>
	<path fill="#3B876F" d="M216,120c0-13.256-10.744-24-24-24s-24,10.744-24,24c0,4.678,1.343,9.041,3.658,12.731h-0.003l0.063,0.093
		c0.205,0.324,0.417,0.643,0.638,0.956l16.258,24.355h0.016c0.709,1.117,1.949,1.864,3.371,1.864c1.448,0,2.705-0.777,3.407-1.93
		h0.016l16.175-24.225c0.26-0.366,0.51-0.739,0.749-1.121l0.015-0.021h-0.001C214.664,129.018,216,124.666,216,120z M192,130
		c-6.629,0-12-5.372-12-12s5.371-12,12-12s12,5.372,12,12S198.629,130,192,130z"/>
	<g>
		<path fill="#7D7D7F" d="M80,236c-21.115,0-39.835,10.23-51.493,26C40.164,277.77,58.885,288,80,288
			c21.115,0,39.836-10.23,51.494-26C119.836,246.23,101.115,236,80,236z"/>
		<circle fill="#7D7D7F" cx="80" cy="200" r="24"/>
	</g>
	<path fill="#674C3D" d="M219.596,52.455l-0.944,2.815c-0.829,2.319-3.045,3.98-5.651,3.98h-6c-1.657,0-3-1.344-3-3v-16.5
		c0-1.656,1.343-3,3-3v-3h-12v3c1.657,0,3,1.344,3,3v16.5c0,1.656-1.343,3-3,3v3h24l3-9l-0.017-0.017L219.596,52.455z"/>
	<path fill="#674C3D" d="M183,48h-3v3c1.657,0,3,1.343,3,3v0.01v2.459v0.011c0,0.015-0.003,0.028-0.003,0.042
		c-0.011,0.76-0.302,1.45-0.775,1.972c-0.005,0.005-0.01,0.009-0.015,0.015c-0.09,0.098-0.187,0.192-0.29,0.277
		c-0.033,0.027-0.071,0.049-0.105,0.076c-0.078,0.06-0.156,0.12-0.24,0.172c-0.122,0.075-0.249,0.141-0.38,0.198
		c-0.031,0.012-0.062,0.022-0.093,0.034C179.818,59.732,178.442,60,177,60c-2.453,0-4.646-1.107-6.114-2.846
		c-0.55-0.787-1.026-1.627-1.429-2.509C168.53,52.62,168,50.374,168,48s0.53-4.62,1.457-6.645c0.403-0.882,0.879-1.722,1.429-2.509
		C172.354,37.107,174.547,36,177,36c4.439,0,8.306,2.417,10.381,6H189v-6.164C185.385,34.031,181.318,33,177.002,33H177
		c-8.285,0-15,6.716-15,15c0,8.285,6.715,15,15,15h0.001c4.316,0,8.383-1.031,11.998-2.836V54c0-1.657,1.343-3,3-3v-3h-3H183z"/>
	<path fill="#5D463A" d="M605,219h-18c-1.657,0-3,1.344-3,3v12c0,1.657,1.343,3,3,3h18c1.657,0,3-1.343,3-3v-12
		C608,220.344,606.657,219,605,219z M606,232.16l-4.176-4.176l4.176-4.176V232.16z M587,221h18c0.276,0,0.525,0.111,0.707,0.293
		l-1.417,1.41l-6.083,6.062c-0.031,0.034-0.055,0.074-0.088,0.107c-1.17,1.171-3.068,1.171-4.239,0.003h-0.005l-6.168-6.168
		l-1.414-1.414C586.474,221.111,586.724,221,587,221z M590.167,227.99l-4.154,4.157L586,223.814L590.167,227.99z M605,235h-18
		c-0.276,0-0.526-0.111-0.707-0.293l5.294-5.294l0.874,0.876h0.006c1.952,1.949,5.113,1.95,7.066-0.003
		c0.019-0.019,0.03-0.04,0.048-0.059l0.823-0.823l5.303,5.303C605.526,234.889,605.276,235,605,235z"/>
	<path fill="#E9BDAC" d="M645,219h-18c-1.657,0-3,1.344-3,3v12c0,1.657,1.343,3,3,3h18c1.657,0,3-1.343,3-3v-12
		C648,220.344,646.657,219,645,219z M646,232.16l-4.176-4.176l4.176-4.176V232.16z M627,221h18c0.276,0,0.525,0.111,0.707,0.293
		l-1.417,1.41l-6.083,6.062c-0.031,0.034-0.055,0.074-0.088,0.107c-1.17,1.171-3.068,1.171-4.239,0.003h-0.005l-6.168-6.168
		l-1.414-1.414C626.474,221.111,626.724,221,627,221z M630.167,227.99l-4.154,4.157L626,223.814L630.167,227.99z M645,235h-18
		c-0.276,0-0.526-0.111-0.707-0.293l5.294-5.294l0.874,0.876h0.006c1.952,1.949,5.113,1.95,7.066-0.003
		c0.019-0.019,0.03-0.04,0.048-0.059l0.823-0.823l5.303,5.303C645.526,234.889,645.276,235,645,235z"/>
</g>
</svg>
